<svg width="40" height="40" viewBox="0 0 40 40" fill="none" xmlns="http://www.w3.org/2000/svg">
<path d="M20 38.3336C30.1254 38.3336 38.3336 30.1254 38.3336 20C38.3336 9.87462 30.1254 1.66638 20 1.66638C9.87465 1.66638 1.66641 9.87462 1.66641 20C1.66641 30.1254 9.87465 38.3336 20 38.3336Z" fill="#F6F5FF"/>
<path d="M20 40C8.97187 40 0 31.0281 0 20C0 8.97187 8.97187 0 20 0C31.0281 0 40 8.97187 40 20C40 31.0281 31.0281 40 20 40ZM20 3.33359C10.8102 3.33359 3.33359 10.8102 3.33359 20C3.33359 29.1898 10.8102 36.6664 20 36.6664C29.1898 36.6664 36.6664 29.1898 36.6664 20C36.6664 10.8102 29.1898 3.33359 20 3.33359Z" fill="#5E48E8"/>
<path d="M18.3328 26.6665C18.0041 26.6668 17.6827 26.5694 17.4094 26.3868L12.4094 23.0532C12.0416 22.808 11.7863 22.4267 11.6996 21.9932C11.613 21.5598 11.702 21.1096 11.9473 20.7419C12.1925 20.3741 12.5738 20.1188 13.0072 20.0321C13.4407 19.9454 13.8908 20.0345 14.2586 20.2797L18.0125 22.7797L25.3867 13.9305C25.6697 13.5909 26.0759 13.3776 26.5161 13.3376C26.9563 13.2975 27.3944 13.4339 27.734 13.7169C28.0736 13.9998 28.2869 14.406 28.327 14.8462C28.367 15.2864 28.2306 15.7245 27.9477 16.0641L19.6141 26.0641C19.4579 26.2525 19.2621 26.4042 19.0407 26.5083C18.8192 26.6124 18.5775 26.6664 18.3328 26.6665Z" fill="#5E48E8"/>
</svg>
