<svg width="144" height="37" viewBox="0 0 144 37" fill="none" xmlns="http://www.w3.org/2000/svg">
<path d="M51.073 9.248C52.833 9.248 54.377 9.592 55.705 10.28C57.049 10.968 58.081 11.952 58.801 13.232C59.537 14.496 59.905 15.968 59.905 17.648C59.905 19.328 59.537 20.8 58.801 22.064C58.081 23.312 57.049 24.28 55.705 24.968C54.377 25.656 52.833 26 51.073 26H45.217V9.248H51.073ZM50.953 23.144C52.713 23.144 54.073 22.664 55.033 21.704C55.993 20.744 56.473 19.392 56.473 17.648C56.473 15.904 55.993 14.544 55.033 13.568C54.073 12.576 52.713 12.08 50.953 12.08H48.577V23.144H50.953ZM64.1242 11.12C63.5322 11.12 63.0362 10.936 62.6362 10.568C62.2522 10.184 62.0602 9.712 62.0602 9.152C62.0602 8.592 62.2522 8.128 62.6362 7.76C63.0362 7.376 63.5322 7.184 64.1242 7.184C64.7162 7.184 65.2042 7.376 65.5882 7.76C65.9882 8.128 66.1882 8.592 66.1882 9.152C66.1882 9.712 65.9882 10.184 65.5882 10.568C65.2042 10.936 64.7162 11.12 64.1242 11.12ZM65.7802 12.704V26H62.4202V12.704H65.7802ZM74.3078 12.488C75.2998 12.488 76.1718 12.688 76.9238 13.088C77.6758 13.472 78.2678 13.976 78.6998 14.6V12.704H82.0838V26.096C82.0838 27.328 81.8358 28.424 81.3398 29.384C80.8438 30.36 80.0998 31.128 79.1078 31.688C78.1158 32.264 76.9158 32.552 75.5078 32.552C73.6198 32.552 72.0678 32.112 70.8518 31.232C69.6518 30.352 68.9718 29.152 68.8118 27.632H72.1478C72.3238 28.24 72.6998 28.72 73.2758 29.072C73.8678 29.44 74.5798 29.624 75.4118 29.624C76.3878 29.624 77.1798 29.328 77.7878 28.736C78.3958 28.16 78.6998 27.28 78.6998 26.096V24.032C78.2678 24.656 77.6678 25.176 76.8998 25.592C76.1478 26.008 75.2838 26.216 74.3078 26.216C73.1878 26.216 72.1638 25.928 71.2358 25.352C70.3078 24.776 69.5718 23.968 69.0278 22.928C68.4998 21.872 68.2358 20.664 68.2358 19.304C68.2358 17.96 68.4998 16.768 69.0278 15.728C69.5718 14.688 70.2998 13.888 71.2118 13.328C72.1398 12.768 73.1718 12.488 74.3078 12.488ZM78.6998 19.352C78.6998 18.536 78.5398 17.84 78.2198 17.264C77.8998 16.672 77.4678 16.224 76.9238 15.92C76.3798 15.6 75.7958 15.44 75.1718 15.44C74.5478 15.44 73.9718 15.592 73.4438 15.896C72.9158 16.2 72.4838 16.648 72.1478 17.24C71.8278 17.816 71.6678 18.504 71.6678 19.304C71.6678 20.104 71.8278 20.808 72.1478 21.416C72.4838 22.008 72.9158 22.464 73.4438 22.784C73.9878 23.104 74.5638 23.264 75.1718 23.264C75.7958 23.264 76.3798 23.112 76.9238 22.808C77.4678 22.488 77.8998 22.04 78.2198 21.464C78.5398 20.872 78.6998 20.168 78.6998 19.352ZM87.0695 11.12C86.4775 11.12 85.9815 10.936 85.5815 10.568C85.1975 10.184 85.0055 9.712 85.0055 9.152C85.0055 8.592 85.1975 8.128 85.5815 7.76C85.9815 7.376 86.4775 7.184 87.0695 7.184C87.6615 7.184 88.1495 7.376 88.5335 7.76C88.9335 8.128 89.1335 8.592 89.1335 9.152C89.1335 9.712 88.9335 10.184 88.5335 10.568C88.1495 10.936 87.6615 11.12 87.0695 11.12ZM88.7255 12.704V26H85.3655V12.704H88.7255ZM97.9012 9.248C99.6612 9.248 101.205 9.592 102.533 10.28C103.877 10.968 104.909 11.952 105.629 13.232C106.365 14.496 106.733 15.968 106.733 17.648C106.733 19.328 106.365 20.8 105.629 22.064C104.909 23.312 103.877 24.28 102.533 24.968C101.205 25.656 99.6612 26 97.9012 26H92.0452V9.248H97.9012ZM97.7812 23.144C99.5412 23.144 100.901 22.664 101.861 21.704C102.821 20.744 103.301 19.392 103.301 17.648C103.301 15.904 102.821 14.544 101.861 13.568C100.901 12.576 99.5412 12.08 97.7812 12.08H95.4052V23.144H97.7812ZM108.384 19.304C108.384 17.96 108.648 16.768 109.176 15.728C109.72 14.688 110.448 13.888 111.36 13.328C112.288 12.768 113.32 12.488 114.456 12.488C115.448 12.488 116.312 12.688 117.048 13.088C117.8 13.488 118.4 13.992 118.848 14.6V12.704H122.232V26H118.848V24.056C118.416 24.68 117.816 25.2 117.048 25.616C116.296 26.016 115.424 26.216 114.432 26.216C113.312 26.216 112.288 25.928 111.36 25.352C110.448 24.776 109.72 23.968 109.176 22.928C108.648 21.872 108.384 20.664 108.384 19.304ZM118.848 19.352C118.848 18.536 118.688 17.84 118.368 17.264C118.048 16.672 117.616 16.224 117.072 15.92C116.528 15.6 115.944 15.44 115.32 15.44C114.696 15.44 114.12 15.592 113.592 15.896C113.064 16.2 112.632 16.648 112.296 17.24C111.976 17.816 111.816 18.504 111.816 19.304C111.816 20.104 111.976 20.808 112.296 21.416C112.632 22.008 113.064 22.464 113.592 22.784C114.136 23.104 114.712 23.264 115.32 23.264C115.944 23.264 116.528 23.112 117.072 22.808C117.616 22.488 118.048 22.04 118.368 21.464C118.688 20.872 118.848 20.168 118.848 19.352ZM128.874 14.648C129.306 14.008 129.898 13.488 130.65 13.088C131.418 12.688 132.29 12.488 133.266 12.488C134.402 12.488 135.426 12.768 136.338 13.328C137.266 13.888 137.994 14.688 138.522 15.728C139.066 16.752 139.338 17.944 139.338 19.304C139.338 20.664 139.066 21.872 138.522 22.928C137.994 23.968 137.266 24.776 136.338 25.352C135.426 25.928 134.402 26.216 133.266 26.216C132.274 26.216 131.402 26.024 130.65 25.64C129.914 25.24 129.322 24.728 128.874 24.104V26H125.514V8.24H128.874V14.648ZM135.906 19.304C135.906 18.504 135.738 17.816 135.402 17.24C135.082 16.648 134.65 16.2 134.106 15.896C133.578 15.592 133.002 15.44 132.378 15.44C131.77 15.44 131.194 15.6 130.65 15.92C130.122 16.224 129.69 16.672 129.354 17.264C129.034 17.856 128.874 18.552 128.874 19.352C128.874 20.152 129.034 20.848 129.354 21.44C129.69 22.032 130.122 22.488 130.65 22.808C131.194 23.112 131.77 23.264 132.378 23.264C133.002 23.264 133.578 23.104 134.106 22.784C134.65 22.464 135.082 22.008 135.402 21.416C135.738 20.824 135.906 20.12 135.906 19.304Z" fill="black"/>
<path d="M2 10.1408L16.1307 2.74075L22.919 6.71483M2 10.1408V26.5852L16.1307 34.2593M2 10.1408L9.06537 14.5259M29.7073 10.6889V26.5852L16.1307 34.2593M29.7073 10.6889L16.1307 18.9111M29.7073 10.6889L22.919 6.71483M16.1307 34.2593V18.9111M16.1307 18.9111L9.06537 14.5259M22.919 6.71483L9.06537 14.5259" stroke="#5028C6" stroke-width="4"/>
</svg>
