<svg width="616" height="674" viewBox="0 0 616 674" fill="none" xmlns="http://www.w3.org/2000/svg">
<path d="M385 140C553 140 550 0.5 616 0.5V645C616 645 571.422 681.621 481 672.5C320.62 656.322 8.59582 551.142 37 346C55 216 208.716 140 385 140Z" fill="url(#paint0_linear_141_81)"/>
<path d="M269.849 538.609C381.155 538.609 471.388 536.096 471.388 532.997C471.388 529.897 381.155 527.383 269.849 527.383C158.543 527.383 68.3112 529.897 68.3112 532.997C68.3112 536.096 158.543 538.609 269.849 538.609Z" fill="#F5F8FF"/>
<path d="M297.389 530.726H160.551C149.452 530.726 141.98 522.208 143.862 511.701L198.973 204.025C200.855 193.518 211.379 185 222.478 185H359.315C370.414 185 377.886 193.518 376.005 204.025L320.893 511.701C319.012 522.208 308.488 530.726 297.389 530.726Z" fill="#5CA4E6"/>
<path d="M280.298 530.726H143.46C132.361 530.726 124.889 522.208 126.771 511.701L181.882 204.025C183.764 193.518 194.287 185 205.387 185H342.224C353.323 185 360.795 193.518 358.913 204.025L303.802 511.701C301.92 522.208 291.397 530.726 280.298 530.726Z" fill="#D1E8F7"/>
<path d="M281.084 520.44H146.359C140.595 520.44 136.716 516.017 137.693 510.561L192.396 205.165C193.373 199.709 198.837 195.286 204.6 195.286H339.326C345.089 195.286 348.969 199.709 347.992 205.165L293.289 510.561C292.312 516.017 286.848 520.44 281.084 520.44Z" fill="white"/>
<path d="M293.836 298.185H165.016L178.442 227.97C179.322 223.689 183.701 220.219 188.223 220.219H309.855C314.377 220.219 317.33 223.689 316.45 227.97L303.617 290.433C302.738 294.714 298.359 298.185 293.836 298.185Z" fill="url(#paint1_linear_141_81)"/>
<path d="M283.453 289.15H90.6011C86.0792 289.15 83.1257 285.679 84.0053 281.398L96.8386 218.935C97.7182 214.654 102.097 211.183 106.62 211.183H299.472C303.994 211.183 306.947 214.654 306.068 218.935L293.234 281.398C292.355 285.679 287.975 289.15 283.453 289.15Z" fill="#FEBB94"/>
<path d="M271.149 512.477L151.538 513.015C147.015 513.015 144.063 509.544 144.942 505.264L157.775 442.801C158.655 438.519 163.034 435.049 167.556 435.049L287.168 434.511C291.69 434.511 294.643 437.982 293.763 442.263L280.93 504.726C280.051 509.007 275.672 512.477 271.149 512.477Z" fill="#FEBB94"/>
<path d="M164.693 493.562C168.097 468.363 193.389 447.934 221.187 447.934C248.984 447.934 268.759 468.363 265.355 493.562" stroke="#FF967C" stroke-width="16.5208" stroke-miterlimit="10" stroke-linecap="round"/>
<path d="M164.693 493.562C168.097 468.363 193.389 447.934 221.187 447.934C234.944 447.934 246.737 452.939 254.727 461.049" stroke="white" stroke-width="16.5208" stroke-miterlimit="10" stroke-linecap="round"/>
<path d="M256.846 425.68H171.201C166.63 425.68 163.54 422.172 164.3 417.845L182.388 314.851C183.148 310.524 187.47 307.016 192.041 307.016H277.685C282.257 307.016 285.347 310.524 284.587 314.851L266.498 417.845C265.739 422.172 261.417 425.68 256.846 425.68Z" fill="url(#paint2_linear_141_81)"/>
<path d="M197.574 361.48H185.897C185.255 361.501 184.639 361.728 184.151 362.123C183.663 362.519 183.332 363.061 183.213 363.659L176.871 399.771C176.809 400.038 176.813 400.316 176.881 400.581C176.951 400.847 177.082 401.094 177.268 401.304C177.453 401.514 177.686 401.682 177.95 401.794C178.214 401.906 178.501 401.959 178.789 401.95H190.467C191.109 401.929 191.725 401.703 192.213 401.306C192.701 400.91 193.032 400.369 193.151 399.771L199.493 363.659C199.555 363.392 199.551 363.114 199.482 362.849C199.413 362.583 199.281 362.336 199.096 362.125C198.911 361.915 198.678 361.748 198.414 361.636C198.15 361.524 197.863 361.471 197.574 361.48Z" fill="white"/>
<path d="M218.879 373.836H207.202C206.559 373.856 205.944 374.083 205.456 374.479C204.968 374.875 204.637 375.417 204.517 376.014L200.345 399.771C200.284 400.038 200.288 400.316 200.357 400.581C200.425 400.847 200.558 401.094 200.743 401.304C200.928 401.514 201.161 401.682 201.425 401.794C201.688 401.906 201.976 401.959 202.265 401.95H213.942C214.584 401.929 215.2 401.703 215.688 401.306C216.176 400.91 216.507 400.369 216.626 399.771L220.798 376.014C220.86 375.747 220.856 375.47 220.787 375.204C220.718 374.939 220.586 374.692 220.401 374.481C220.216 374.271 219.983 374.103 219.719 373.992C219.455 373.88 219.168 373.827 218.879 373.836Z" fill="white"/>
<path d="M247.083 339.072H235.405C234.763 339.092 234.148 339.319 233.659 339.715C233.171 340.112 232.84 340.653 232.721 341.251L222.444 399.771C222.383 400.038 222.386 400.316 222.455 400.581C222.524 400.847 222.656 401.094 222.841 401.304C223.026 401.514 223.259 401.682 223.523 401.794C223.787 401.906 224.074 401.959 224.363 401.95H236.04C236.683 401.929 237.298 401.703 237.786 401.306C238.274 400.91 238.605 400.369 238.725 399.771L249.002 341.251C249.063 340.983 249.059 340.706 248.991 340.441C248.922 340.175 248.79 339.928 248.605 339.717C248.42 339.507 248.186 339.34 247.922 339.228C247.659 339.116 247.372 339.063 247.083 339.072Z" fill="white"/>
<path d="M267.177 354.241H255.5C254.858 354.262 254.242 354.489 253.754 354.885C253.266 355.281 252.935 355.822 252.816 356.42L245.202 399.771C245.141 400.038 245.144 400.316 245.214 400.581C245.282 400.847 245.414 401.094 245.599 401.304C245.784 401.514 246.018 401.682 246.281 401.794C246.545 401.906 246.833 401.959 247.121 401.95H258.798C259.441 401.929 260.057 401.703 260.545 401.306C261.033 400.91 261.364 400.369 261.483 399.771L269.096 356.42C269.158 356.153 269.154 355.876 269.085 355.61C269.016 355.344 268.884 355.097 268.699 354.887C268.514 354.677 268.281 354.509 268.017 354.397C267.753 354.285 267.466 354.232 267.177 354.241Z" fill="white"/>
<path d="M190.935 319.687H222.551" stroke="white" stroke-width="10" stroke-miterlimit="10" stroke-linecap="round"/>
<path d="M189.15 329.849H204.958" stroke="white" stroke-width="10" stroke-miterlimit="10" stroke-linecap="round"/>
<path opacity="0.6" d="M180.278 409.309H186.393" stroke="white" stroke-width="6" stroke-miterlimit="10" stroke-linecap="round"/>
<path opacity="0.6" d="M203.754 409.309H209.868" stroke="white" stroke-width="6" stroke-miterlimit="10" stroke-linecap="round"/>
<path opacity="0.6" d="M225.852 409.309H231.966" stroke="white" stroke-width="6" stroke-miterlimit="10" stroke-linecap="round"/>
<path opacity="0.6" d="M248.61 409.309H254.725" stroke="white" stroke-width="6" stroke-miterlimit="10" stroke-linecap="round"/>
<path d="M369.187 425.68H283.543C278.972 425.68 275.882 422.172 276.642 417.845L294.73 314.851C295.49 310.524 299.811 307.016 304.383 307.016H390.028C394.599 307.016 397.689 310.524 396.928 314.851L378.841 417.845C378.081 422.172 373.759 425.68 369.187 425.68Z" fill="url(#paint3_linear_141_81)"/>
<path d="M307.697 377.006H296.02C295.378 377.027 294.762 377.254 294.274 377.65C293.786 378.046 293.455 378.587 293.336 379.185L289.212 399.771C289.151 400.038 289.155 400.316 289.223 400.581C289.292 400.847 289.424 401.094 289.61 401.304C289.795 401.514 290.028 401.682 290.292 401.794C290.555 401.906 290.842 401.959 291.131 401.95H302.809C303.451 401.929 304.067 401.703 304.555 401.306C305.043 400.91 305.374 400.369 305.493 399.771L309.617 379.185C309.678 378.918 309.674 378.64 309.605 378.375C309.537 378.109 309.404 377.862 309.219 377.652C309.034 377.442 308.801 377.274 308.537 377.162C308.274 377.05 307.986 376.997 307.697 377.006Z" fill="white"/>
<path d="M335.631 345.129H323.954C323.311 345.15 322.696 345.376 322.207 345.773C321.72 346.169 321.389 346.71 321.269 347.308L312.687 399.771C312.626 400.038 312.63 400.316 312.699 400.581C312.767 400.847 312.899 401.094 313.084 401.304C313.269 401.514 313.503 401.682 313.767 401.794C314.03 401.906 314.318 401.959 314.607 401.95H326.284C326.926 401.929 327.541 401.703 328.03 401.306C328.518 400.91 328.849 400.369 328.968 399.771L337.55 347.308C337.611 347.041 337.607 346.763 337.539 346.498C337.47 346.232 337.338 345.985 337.153 345.775C336.968 345.565 336.735 345.397 336.471 345.285C336.207 345.173 335.92 345.12 335.631 345.129Z" fill="white"/>
<path d="M355.561 360.108H343.884C343.241 360.129 342.626 360.356 342.137 360.752C341.65 361.148 341.319 361.689 341.199 362.287L334.785 399.771C334.724 400.038 334.728 400.316 334.797 400.581C334.865 400.847 334.998 401.094 335.183 401.304C335.368 401.514 335.601 401.682 335.865 401.794C336.129 401.906 336.416 401.959 336.705 401.95H348.382C349.024 401.929 349.64 401.703 350.128 401.306C350.616 400.91 350.947 400.369 351.066 399.771L357.48 362.287C357.541 362.02 357.537 361.743 357.469 361.477C357.4 361.211 357.268 360.964 357.083 360.754C356.898 360.544 356.665 360.376 356.401 360.264C356.137 360.152 355.85 360.099 355.561 360.108Z" fill="white"/>
<path d="M379.519 354.241H367.842C367.199 354.262 366.584 354.489 366.096 354.885C365.607 355.281 365.277 355.822 365.157 356.42L357.544 399.771C357.482 400.038 357.486 400.316 357.555 400.581C357.624 400.847 357.756 401.094 357.941 401.304C358.126 401.514 358.36 401.682 358.623 401.794C358.887 401.906 359.174 401.959 359.463 401.95H371.14C371.782 401.929 372.399 401.703 372.886 401.306C373.374 400.91 373.705 400.369 373.825 399.771L381.438 356.42C381.499 356.153 381.496 355.876 381.427 355.61C381.358 355.344 381.226 355.097 381.041 354.887C380.856 354.677 380.622 354.509 380.359 354.397C380.095 354.285 379.808 354.232 379.519 354.241Z" fill="white"/>
<path d="M303.277 319.687H334.892" stroke="white" stroke-width="10" stroke-miterlimit="10" stroke-linecap="round"/>
<path d="M301.492 329.849H317.3" stroke="white" stroke-width="10" stroke-miterlimit="10" stroke-linecap="round"/>
<path opacity="0.6" d="M292.62 409.309H298.735" stroke="white" stroke-width="6" stroke-miterlimit="10" stroke-linecap="round"/>
<path opacity="0.6" d="M316.096 409.309H322.21" stroke="white" stroke-width="6" stroke-miterlimit="10" stroke-linecap="round"/>
<path opacity="0.6" d="M338.194 409.309H344.308" stroke="white" stroke-width="6" stroke-miterlimit="10" stroke-linecap="round"/>
<path opacity="0.6" d="M360.952 409.309H367.067" stroke="white" stroke-width="6" stroke-miterlimit="10" stroke-linecap="round"/>
<path d="M5.65369 541.429L29.9732 589.59L26.9573 590.955C25.9391 591.416 24.7699 591.475 23.7062 591.119C22.6426 590.764 21.7715 590.022 21.2854 589.059L0.633731 548.164C0.147636 547.2 0.0851744 546.093 0.460536 545.086C0.836465 544.079 1.61899 543.255 2.63718 542.794L5.65369 541.429Z" fill="#71C8EA"/>
<path d="M32.1306 530.554L15.3466 537.122L24.7625 549.727L39.6418 545.429L32.1306 530.554Z" fill="#FFCCB3"/>
<path d="M21.4098 537.625C21.4098 537.625 27.9624 547.206 28.9511 552.559C29.9397 557.912 33.3248 584.992 32.4139 587.433C31.7592 589.187 29.3809 589.941 27.8721 590.1C27.541 590.133 27.2071 590.068 26.9169 589.914C26.6268 589.759 26.3939 589.523 26.252 589.239L4.17609 545.521C3.80698 544.791 3.7553 543.954 4.03128 543.19C4.30784 542.424 4.8899 541.792 5.65368 541.429C8.70768 539.976 13.3795 537.8 15.3466 537.122C18.387 536.074 20.3938 536.081 21.4098 537.625Z" fill="#5E48E8"/>
<path d="M140.223 560.545L117.416 600.4C116.878 601.339 115.969 602.037 114.888 602.342C113.807 602.646 112.642 602.531 111.65 602.022L108.71 600.515L135.57 553.579L138.509 555.086C139.501 555.595 140.239 556.455 140.561 557.48C140.882 558.503 140.761 559.606 140.223 560.545Z" fill="#71C8EA"/>
<path d="M109.707 541.451L126.119 548.814L116.042 560.952L101.411 555.948L109.707 541.451Z" fill="#FFCCB3"/>
<path d="M120.037 549.026C120.037 549.026 112.981 558.281 111.708 563.58C110.435 568.879 105.609 595.762 106.388 598.244C106.948 600.027 109.283 600.893 110.782 601.124C111.11 601.174 111.447 601.125 111.745 600.984C112.043 600.844 112.288 600.619 112.445 600.342L136.827 557.736C137.235 557.025 137.331 556.192 137.096 555.414C136.861 554.637 136.313 553.978 135.57 553.579C132.597 551.982 128.047 549.584 126.119 548.814C123.138 547.622 121.134 547.533 120.037 549.026Z" fill="#5E48E8"/>
<path d="M159.151 484.677C159.151 484.677 165.434 514.212 160.558 520L36.3169 550.115L25.7222 531.329L98.2737 500.164L112.804 481.311L159.151 484.677Z" fill="#D1E8F7"/>
<path d="M127.711 505.752L100.299 514.431L87.508 519.509L104.142 533.675L89.2706 536.855L48.7072 505.752H127.711Z" fill="#5CA4E6"/>
<path d="M33.5071 528.865L34.3504 531.639L53.6125 545.872L71.7065 541.692C71.7065 541.692 36.8013 525.967 33.5071 528.865Z" fill="#5CA4E6"/>
<path d="M68.3776 482.954C68.3776 482.954 33.2464 481.15 15.8333 482.599C4.62074 483.532 0.578656 510.694 9.52656 515.635L105.557 562.181L116.873 542.823L54.9248 503.129L99.2441 497.227L68.3776 482.954Z" fill="#D1E8F7"/>
<path d="M18.7862 517.947C29.1612 517.947 37.5719 509.986 37.5719 500.164C37.5719 490.342 29.1612 482.38 18.7862 482.38C8.4107 482.38 0 490.342 0 500.164C0 509.986 8.4107 517.947 18.7862 517.947Z" fill="#D1E8F7"/>
<path d="M157.437 520.244C167.812 520.244 176.223 512.282 176.223 502.461C176.223 492.639 167.812 484.677 157.437 484.677C147.062 484.677 138.651 492.639 138.651 502.461C138.651 512.282 147.062 520.244 157.437 520.244Z" fill="#D1E8F7"/>
<path d="M105.976 418.543C103.997 409.294 108.651 409.532 110.2 408.062C110.2 408.062 116.01 403.526 120.438 407.754C125.125 412.226 151.99 446.97 151.99 446.97L135.181 461.605L132.021 458.036L123.836 448.795L115.082 438.919L113.995 437.795L102.185 425.132C102.185 425.132 107.095 423.412 105.976 418.543Z" fill="#5E48E8"/>
<path d="M115.298 427.831C122.063 425.686 125.71 418.756 123.444 412.351C121.179 405.947 113.858 402.494 107.092 404.639C100.327 406.785 96.6796 413.715 98.9459 420.119C101.212 426.523 108.533 429.976 115.298 427.831Z" fill="#5E48E8"/>
<path d="M114.15 437.745C113.811 435.812 113.132 431.946 112.403 428.422L108.525 411.368C108.525 411.368 118.941 425.941 123.74 436.092C127.293 443.699 131.416 451.453 132.098 458.011L123.914 448.771L115.16 438.895L114.15 437.745Z" fill="#465393"/>
<path d="M168.78 407.855C172.775 400.958 170.855 399.787 172.554 395.864C174.228 392.034 171.256 382.543 174.102 383.837C176.947 385.131 177.827 388.571 177.827 388.571C179.774 385.312 181.566 379.316 186.224 378.629C190.883 377.943 191.296 379.331 193.936 381.383C200.961 386.916 192.003 395.231 190.508 398.398C189.546 400.383 182.478 406.434 181.695 407.757L178.137 412.642L168.78 407.855Z" fill="#FFCCB3"/>
<path d="M182.505 388.998L188.182 379.076L182.505 388.998Z" fill="#E56441"/>
<path d="M182.505 388.998L188.182 379.076" stroke="#E56441" stroke-width="0.94666" stroke-linecap="round"/>
<path d="M186.225 390.605L192.412 381.364L186.225 390.605Z" fill="#E56441"/>
<path d="M186.225 390.605L192.412 381.364" stroke="#E56441" stroke-width="0.94666" stroke-linecap="round"/>
<path d="M190.644 392.381L194.18 386.785L190.644 392.381Z" fill="#E56441"/>
<path d="M190.644 392.381L194.18 386.785" stroke="#E56441" stroke-width="0.94666" stroke-linecap="round"/>
<path d="M181.102 397.733C181.072 394.297 178.895 390.14 178.895 390.14L181.102 397.733Z" fill="#E56441"/>
<path d="M181.102 397.733C181.072 394.297 178.895 390.14 178.895 390.14" stroke="#E56441" stroke-width="0.94666" stroke-linecap="round"/>
<path d="M135.038 446.693L169.22 403.602C169.437 403.349 169.747 403.181 170.087 403.131C170.428 403.081 170.777 403.152 171.065 403.33L180.016 408.934C180.441 409.207 180.744 409.619 180.866 410.092C180.988 410.564 180.92 411.063 180.675 411.491L153.187 459.479L135.038 446.693Z" fill="#5E48E8"/>
<path d="M143.343 464.894C149.665 464.894 154.79 460.042 154.79 454.058C154.79 448.074 149.665 443.222 143.343 443.222C137.022 443.222 131.897 448.074 131.897 454.058C131.897 460.042 137.022 464.894 143.343 464.894Z" fill="#5661AE"/>
<path d="M92.5836 398.537C92.5836 398.537 111.766 403.342 115.058 404.589C118.351 405.836 118.57 410.823 118.79 414.356C119.009 417.889 118.272 497.227 118.272 497.227L75.8207 495.682L44.0734 478.09C44.0734 478.09 45.4539 415.137 45.8929 412.228C46.3318 409.319 42.882 406.814 46.6214 405.349L70.6593 399.338L92.5836 398.537Z" fill="#5E48E8"/>
<path d="M60.6393 426.8L60.9812 485.418L42.731 466.163L51.5608 424.976L60.6393 426.8Z" fill="#465393"/>
<path d="M67.5287 400.234C67.5287 400.234 64.8131 405.404 67.5287 408.97C70.2442 412.536 81.1155 416.001 88.5427 415.899C95.9693 415.797 99.9046 409.094 96.5377 399.709L84.2371 396.438L70.6593 399.338L67.5287 400.234Z" fill="#465393"/>
<path d="M98.2742 355.678C98.2742 355.678 103.622 366.603 97.9182 368.86C92.2139 371.117 92.8783 356.208 98.2742 355.678Z" fill="#93523E"/>
<path d="M92.2412 390.637L93.7886 407.154C93.7886 407.154 95.2719 409.368 89.495 410.531C85.7788 411.278 75.7719 407.546 73.8303 406.426C73.0046 406.011 72.3578 405.337 72.0012 404.519C71.6446 403.701 71.6003 402.792 71.8757 401.946C72.4657 399.925 74.911 383.087 74.911 383.087L92.2412 390.637Z" fill="#FFCCB3"/>
<path d="M92.5393 393.821L83.3217 389.511L93.5978 405.117L92.5393 393.821Z" fill="#FF967C"/>
<path d="M95.2026 358.84C95.2026 358.84 100.612 371.683 102.574 380.692C104.554 389.782 101.395 392.052 97.2276 393.388C93.9402 394.443 88.6909 395.284 85.1201 394.225C78.6084 392.295 72.238 386.725 70.7144 385.582C68.3555 383.81 66.0267 375.776 69.4839 371.231C72.9416 366.685 86.5642 352.401 95.2026 358.84Z" fill="#FFCCB3"/>
<path d="M88.2382 376.567C88.9577 376.298 89.1905 375.239 88.7584 374.199C88.3262 373.159 87.3933 372.534 86.6738 372.802C85.9543 373.07 85.7215 374.13 86.1531 375.169C86.5852 376.209 87.5188 376.834 88.2382 376.567Z" fill="#080B09"/>
<path d="M98.126 372.815C98.8455 372.548 99.0783 371.488 98.6462 370.449C98.2146 369.409 97.281 368.784 96.5615 369.051C95.842 369.32 95.6092 370.379 96.0413 371.419C96.4729 372.458 97.4065 373.084 98.126 372.815Z" fill="#080B09"/>
<path d="M94.4996 374.589C94.4996 374.589 93.6211 377.106 95.4678 376.861C97.2231 376.569 98.4145 377.39 96.8807 379.076" fill="#E56441"/>
<path d="M94.4996 374.589C94.4996 374.589 93.6211 377.106 95.4678 376.861C97.2231 376.569 98.4145 377.39 96.8807 379.076" stroke="#E56441" stroke-width="0.94666" stroke-linecap="round"/>
<path d="M96.9664 381.301L96.9755 381.3L96.9846 381.297C97.0101 381.29 97.0374 381.289 97.0629 381.295C97.0891 381.3 97.1129 381.313 97.1322 381.33C97.1515 381.348 97.1657 381.37 97.1731 381.394C97.1799 381.419 97.1805 381.445 97.1737 381.469L97.168 381.49L97.1657 381.512C97.0527 382.613 96.7631 383.268 96.4116 383.636C96.072 383.991 95.6461 384.11 95.1629 384.075C94.6671 384.039 94.1225 383.841 93.595 383.569C93.0737 383.301 92.5893 382.972 92.2151 382.689C92.1895 382.666 92.1708 382.638 92.1606 382.607C92.1492 382.574 92.1481 382.538 92.1572 382.505C92.1657 382.471 92.1844 382.44 92.21 382.416C92.2361 382.391 92.2685 382.374 92.3042 382.366L92.3071 382.365C93.7347 382.023 95.888 381.542 96.9664 381.301Z" fill="#E56441" stroke="#E56441"/>
<path d="M81.9741 372.166L82.1092 372.346C82.2824 372.623 82.5647 372.826 82.8946 372.907C83.224 372.989 83.5749 372.944 83.8696 372.782L88.8595 369.872C89.1071 369.741 89.2933 369.526 89.3819 369.27C89.4699 369.015 89.454 368.737 89.3365 368.493C89.2718 368.34 89.1741 368.201 89.0486 368.087C88.9237 367.972 88.7743 367.884 88.6102 367.828C88.4466 367.773 88.2723 367.75 88.0985 367.763C87.9248 367.776 87.7561 367.823 87.6034 367.902L82.4783 370.633C82.3369 370.701 82.2114 370.794 82.1087 370.908C82.0064 371.023 81.9292 371.155 81.8826 371.298C81.8355 371.441 81.8191 371.592 81.835 371.741C81.8509 371.89 81.898 372.034 81.9741 372.166Z" fill="#080B09"/>
<path d="M99.2117 364.703L93.3559 365.216C93.1827 365.234 93.0152 365.286 92.8647 365.368C92.7142 365.451 92.5842 365.564 92.4831 365.698C92.382 365.832 92.3122 365.985 92.2781 366.146C92.244 366.308 92.2463 366.475 92.2849 366.635C92.3355 366.899 92.4888 367.137 92.7148 367.299C92.9414 367.462 93.2236 367.538 93.5064 367.512L99.3588 367.219C99.6984 367.194 100.014 367.042 100.236 366.797C100.458 366.552 100.569 366.235 100.544 365.913L100.548 365.692C100.531 365.543 100.483 365.399 100.407 365.267C100.33 365.136 100.226 365.021 100.102 364.929C99.9767 364.836 99.8336 364.769 99.6808 364.73C99.528 364.691 99.3685 364.682 99.2117 364.703Z" fill="#080B09"/>
<path d="M88.4887 361.402C88.4887 361.402 85.5659 366.667 80.2631 368.228C74.9604 369.79 77.8582 377.713 77.8582 377.713C77.8582 377.713 74.2221 374.288 70.0426 376.216C65.8625 378.143 69.0352 385.708 74.8099 385.804L73.2391 394.316C73.2391 394.316 70.3146 390.868 67.239 389.024C64.1629 387.179 53.1139 380.018 57.9947 370.586C57.9947 370.586 54.1758 357.343 64.6496 350.477C75.1233 343.611 84.1888 346.202 84.1888 346.202C84.1888 346.202 86.6857 342.453 92.4734 343.218C98.2612 343.984 99.5957 353.864 97.6791 357.437C95.7625 361.01 92.6392 362.529 88.4887 361.402Z" fill="#93523E"/>
<path d="M44.8526 414.188C52.2184 407.828 54.3933 411.73 56.5223 412.233C56.5223 412.233 63.6183 414.621 62.0613 420.39C60.4156 426.494 42.731 466.163 42.731 466.163L20.8311 460.03L22.4427 455.63L26.612 444.236L31.0653 432.052L31.5253 430.591L36.9336 414.495C36.9336 414.495 41.0149 417.598 44.8526 414.188Z" fill="#5E48E8"/>
<path d="M59.4394 425.194C64.0794 420.063 63.4468 412.343 58.0271 407.951C52.6073 403.558 44.4522 404.157 39.8127 409.288C35.1727 414.418 35.8047 422.138 41.225 426.531C46.6447 430.923 54.7993 430.324 59.4394 425.194Z" fill="#5E48E8"/>
<path d="M40.5629 456.419L81.2211 494.135C81.4579 494.373 81.5931 494.685 81.601 495.011C81.609 495.338 81.4892 495.655 81.2643 495.903L74.2256 503.57C73.8843 503.934 73.4124 504.164 72.9013 504.217C72.3908 504.269 71.8774 504.14 71.4617 503.855L24.7994 471.78L40.5629 456.419Z" fill="#5E48E8"/>
<path d="M31.7632 474.086C38.0852 474.086 43.2103 469.235 43.2103 463.251C43.2103 457.266 38.0852 452.415 31.7632 452.415C25.4416 452.415 20.3167 457.266 20.3167 463.251C20.3167 469.235 25.4416 474.086 31.7632 474.086Z" fill="#5E48E8"/>
<path d="M97.9108 449.154L75.8451 507.025H31.4787C31.4787 505.258 32.2203 503.563 33.54 502.313C34.8603 501.064 36.6503 500.362 38.5169 500.362H70.6145L89.6682 449.154H97.9108Z" fill="white"/>
<path d="M97.9107 449.154H157.437L134.416 507.025H75.8451L97.9107 449.154Z" fill="url(#paint4_linear_141_81)"/>
<path d="M181.029 260.426C181.029 260.426 190.948 258.449 194.094 263.015C197.24 267.581 200.385 276.159 207.516 275.047C214.647 273.934 220.1 251.5 227.23 251.699C234.361 251.897 231.215 266.589 238.975 266.787C246.735 266.985 244.847 258.647 251.139 258.647C257.431 258.647 255.334 276.515 263.513 276.714C271.693 276.913 270.853 253.684 283.227 254.081" stroke="white" stroke-width="5" stroke-miterlimit="10" stroke-linecap="round"/>
<path d="M152.076 257.34C157.127 245.594 152.264 232.621 141.214 228.362C130.163 224.104 117.111 230.173 112.06 241.918C107.009 253.663 111.872 266.637 122.922 270.896C133.972 275.154 147.025 269.085 152.076 257.34Z" stroke="#FF967C" stroke-width="16.5208" stroke-miterlimit="10" stroke-linecap="round"/>
<path d="M142.357 268.705C136.526 272.345 129.382 273.385 122.922 270.896C111.872 266.637 107.009 253.663 112.06 241.918C117.111 230.173 130.163 224.104 141.214 228.362" stroke="white" stroke-width="16.5208" stroke-miterlimit="10" stroke-linecap="round"/>
<path d="M188.484 227.001H232.128" stroke="white" stroke-width="10" stroke-miterlimit="10" stroke-linecap="round"/>
<path opacity="0.6" d="M186.416 238.398H204.173" stroke="white" stroke-width="10" stroke-miterlimit="10" stroke-linecap="round"/>
<path d="M518.907 510.258C518.782 510.27 518.725 510.337 518.793 510.39C518.737 510.455 518.737 510.455 518.754 510.575C518.487 511.394 518.299 512.234 518.191 513.085L528.958 521.277L530.151 520.009C530.151 520.009 526.176 515.355 524.688 514.002C524.046 513.405 523.473 512.861 522.899 512.318C522.399 511.827 521.951 511.27 521.519 510.832C520.917 510.05 519.174 510.351 519.157 510.231C519.089 510.179 518.907 510.258 518.907 510.258Z" fill="#233B62"/>
<path d="M437.492 439.078L447.889 448.616L506.022 501.76L507.084 502.675L507.544 503.351L507.612 503.404L515.846 515.215L516.766 516.566L517.073 517.016L522.644 525.062L518.055 527.223L516.726 527.843L514.852 528.699L511.894 530.149L511.843 530.214L508.702 531.743L508.549 531.518L501.394 518.572C500.008 516.071 498.061 513.886 495.692 512.167L432.477 466.358L420.462 457.65L437.492 439.078Z" fill="#FFCCB3"/>
<path d="M515.051 503.843C512.263 502.618 509.134 501.523 506.079 501.694C507.919 503.221 508.759 505.94 509.98 507.922C512.484 512.002 518.907 519.584 515.625 526.027C513.779 529.647 508.623 531.571 508.549 531.517C507.686 535.236 503.41 550.37 511.939 541.597C516.704 536.698 521.428 531.464 523.802 526.269C524.779 524.139 522.717 522.015 521.707 520.217C520.412 517.495 518.481 513.892 518.725 510.879L518.776 510.813C518.918 510.605 529.963 519.965 530.151 520.009C530.531 519.427 531.417 518.252 531.417 518.252C531.417 518.252 515.579 504.03 515.051 503.843Z" fill="#5E48E8"/>
<path d="M396.1 553.351C396 553.277 395.911 553.287 395.922 553.371C395.833 553.381 395.833 553.381 395.755 553.476C394.961 553.886 394.206 554.363 393.501 554.9L395.146 567.884L396.935 567.766C396.935 567.766 397.533 561.809 397.465 559.853C397.447 559.002 397.44 558.235 397.433 557.467C397.437 556.784 397.529 556.09 397.543 555.492C397.693 554.536 396.221 553.593 396.299 553.499C396.288 553.415 396.1 553.351 396.1 553.351Z" fill="#233B62"/>
<path d="M390.486 448.576L390.87 462.274L393.167 538.747L393.249 540.103L393.078 540.891L393.089 540.975L390.251 554.869L389.91 556.444L389.796 556.969L387.837 566.41L382.958 564.915L381.55 564.478L379.578 563.848L376.395 562.929L376.307 562.939L372.936 561.956L372.993 561.694L377.441 547.703C378.296 544.996 378.519 542.145 378.095 539.349L366.75 464.758L364.592 450.578L390.486 448.576Z" fill="#FFCCB3"/>
<path d="M398.08 546.212C396.993 543.492 395.567 540.639 393.256 538.737C393.444 541.049 392.036 543.549 391.442 545.771C390.22 550.347 389.211 560.018 382.105 562.452C378.112 563.819 373.003 561.778 372.992 561.694C369.629 563.78 355.39 571.766 367.968 571.141C374.993 570.792 382.237 570.18 387.772 568.039C390.042 567.161 390.139 564.279 390.745 562.324C391.83 559.522 393.109 555.666 395.509 553.674L395.598 553.664C395.853 553.608 396.833 567.611 396.934 567.766C397.635 567.601 399.135 567.346 399.135 567.346C399.135 567.346 398.322 546.697 398.08 546.212Z" fill="#5E48E8"/>
<path d="M374.824 345.797L354.273 427.948L354.236 433.78L370.947 531.055L397.554 528.329L389.835 435.426L411.004 386.953L406.724 347.202L374.824 345.797Z" fill="#1F2D49"/>
<path d="M371.947 447.902C381.871 447.902 389.917 440.286 389.917 430.891C389.917 421.496 381.871 413.88 371.947 413.88C362.022 413.88 353.977 421.496 353.977 430.891C353.977 440.286 362.022 447.902 371.947 447.902Z" fill="#1F2D49"/>
<path d="M396.58 419.982L391.511 379.393L389.835 435.426L396.58 419.982Z" fill="#0D1B33"/>
<path d="M430.297 345.541C430.297 345.541 439.877 360.779 440.002 373.54C440.195 392.692 432.898 427.033 432.898 427.033L496.607 487.992L481.439 509.52C481.439 509.52 427.077 466.82 404.075 446.538L398.923 436.664L391.511 379.393L402.84 345.541H430.297Z" fill="#1F2D49"/>
<path d="M374.824 345.797L430.626 346.34L436.049 356.964L373.881 349.567L374.824 345.797Z" fill="#0D1B33"/>
<path d="M416.733 451.475C426.657 451.475 434.703 443.859 434.703 434.464C434.703 425.07 426.657 417.453 416.733 417.453C406.808 417.453 398.763 425.07 398.763 434.464C398.763 443.859 406.808 451.475 416.733 451.475Z" fill="#1F2D49"/>
<path d="M368.31 232.908C368.31 232.908 369.059 240.805 366.858 248.395C364.657 255.986 347.992 272.059 362.77 285.156C377.549 298.253 395.629 263.129 395.629 263.129L389.969 246.907L370.397 227.631L368.31 232.908Z" fill="#1F2D49"/>
<path d="M413.399 234.752C413.399 234.752 417.834 240.085 427.94 244.445C437.855 248.724 448.531 255.756 446.333 271.085C444.13 286.415 414.818 274.509 406.206 265.727C397.594 256.947 398.779 241.269 398.779 241.269L413.399 234.752Z" fill="#1F2D49"/>
<path d="M390.729 263.476C390.729 263.476 379.479 267.689 377.762 268.989C376.045 270.29 374.414 280.906 371.494 285.945C368.575 290.985 364.303 300.288 370.542 308.833C376.78 317.378 376.117 324.163 376.117 324.163L374.789 345.598L428.553 346.536C429.03 346.551 429.502 346.469 429.939 346.298C430.376 346.127 430.768 345.869 431.097 345.543C431.421 345.217 431.665 344.829 431.824 344.406C431.978 343.982 432.034 343.532 431.995 343.085C431.398 336.836 428.667 328.059 428.451 318.108C428.162 304.621 427.946 259.558 427.946 259.558L404.522 258.862C399.804 259.632 390.729 263.476 390.729 263.476Z" fill="#FEBB94"/>
<path d="M418.726 277.979C418.726 277.979 410.891 284.742 410.429 289.76C409.969 294.778 408.903 308.768 398.833 310.163C386.49 311.874 383.26 313.539 388.981 314.848C394.703 316.157 407.689 314.036 407.689 319.647C407.689 323.641 412.734 326.628 415.269 324.447C417.804 322.265 437.997 289.105 418.726 277.979Z" fill="#FF967C"/>
<path d="M324.226 283.648L319.979 278.501C319.089 277.296 317.907 276.311 316.531 275.63C314.441 274.639 311.236 272.791 310.123 270.944C308.277 268.008 301.004 260.077 307.313 253.913C309.649 251.638 309.065 252.176 313.733 252.244C318.402 252.312 319.118 256.898 321.451 259.9C321.451 259.9 321.975 256.437 324.554 254.855C327.133 253.273 325.422 262.936 327.406 266.598C329.389 270.26 327.786 271.644 332.487 278.077L324.226 283.648Z" fill="#FFCCB3"/>
<path d="M313.023 252.773L316.817 260.92L313.023 252.773Z" fill="#E56441"/>
<path d="M313.023 252.773L316.817 260.92" stroke="#E56441" stroke-width="0.94666" stroke-linecap="round"/>
<path d="M308.075 254.221L313.332 262.898L308.075 254.221Z" fill="#E56441"/>
<path d="M308.075 254.221L313.332 262.898" stroke="#E56441" stroke-width="0.94666" stroke-linecap="round"/>
<path d="M304.971 259.926L309.115 265.105L304.971 259.926Z" fill="#E56441"/>
<path d="M304.971 259.926L309.115 265.105" stroke="#E56441" stroke-width="0.94666" stroke-linecap="round"/>
<path d="M320.475 261.746C320.475 261.746 318.87 266.099 319.147 269.53L320.475 261.746Z" fill="#E56441"/>
<path d="M320.475 261.746C320.475 261.746 318.87 266.099 319.147 269.53" stroke="#E56441" stroke-width="0.94666" stroke-linecap="round"/>
<path d="M380.495 267.587C376.134 269.018 370.055 271.921 368.409 275.159L353.874 306.506L329.666 271.685L320.499 280.825L343.106 325.089C347.237 334.823 357.732 338.48 365.333 327.989L377.479 309.931L380.495 267.587Z" fill="#FEBB94"/>
<path d="M374.296 294.572C374.296 294.572 372.986 292.432 372.986 303.603L365.334 327.989L377.479 309.931C387.222 297.53 379.525 294.218 374.296 294.572Z" fill="#FF967C"/>
<path d="M400.945 279.782L360.792 294.922C359.545 295.392 358.937 296.731 359.434 297.912L379.53 345.673C380.027 346.854 381.441 347.43 382.689 346.96L422.842 331.82C424.089 331.349 424.698 330.011 424.201 328.83L404.104 281.068C403.607 279.887 402.193 279.311 400.945 279.782Z" fill="#5E48E8"/>
<path d="M366.919 299.414L383.477 293.171" stroke="white" stroke-width="4" stroke-miterlimit="10" stroke-linecap="round"/>
<path d="M369.42 305.026L376.967 302.18" stroke="white" stroke-width="4" stroke-miterlimit="10" stroke-linecap="round"/>
<path d="M389.305 252.247L389.937 269.003C389.937 269.003 389.072 272.672 393.05 272.265C397.027 271.858 402.383 268.893 405.393 265.636C408.403 262.379 408.198 262.118 406.907 259.981C405.617 257.844 399.56 241.555 399.56 241.555L389.305 252.247Z" fill="#FFCCB3"/>
<path d="M389.396 253.653L396.73 249.231C396.73 249.231 393.48 262.733 389.937 269.003L389.396 253.653Z" fill="#FCBA9F"/>
<path d="M369.619 227.173C369.619 227.173 369.503 243.848 377.102 252.24C382.059 257.712 387.272 256.987 395.969 247.977C403.943 239.716 405.061 235.411 405.061 235.411L399.555 219.052C399.555 219.052 370.514 211.998 369.619 227.173Z" fill="#FFCCB3"/>
<path d="M377.182 223.305C377.182 223.305 380.365 230.623 386.277 232.668C392.189 234.713 393.736 238.515 393.736 238.515C393.736 238.515 394.87 232.259 399.516 232.486C404.162 232.713 403.218 240.478 400.334 243.057C400.334 243.057 403.803 249.148 406.745 253.653L419.628 241.549C419.628 241.549 412.99 234.285 411.531 228.44C410.072 222.595 405.348 206.947 387.34 207.984C366.197 209.2 367.412 225.464 368.31 234.498C368.31 234.498 374.94 232.091 377.182 223.305Z" fill="#1F2D49"/>
<path d="M379.471 247.084L384.61 244.697C384.615 244.724 384.619 244.754 384.623 244.784C384.658 245.04 384.674 245.391 384.6 245.776C384.456 246.53 383.966 247.446 382.505 248.04C381.567 248.328 380.768 248.044 380.181 247.667C379.887 247.477 379.653 247.267 379.492 247.105C379.484 247.098 379.478 247.091 379.471 247.084Z" fill="#E56441" stroke="#E56441"/>
<path d="M373.872 240.312C374.521 240.16 374.856 239.302 374.62 238.396C374.384 237.49 373.666 236.878 373.016 237.03C372.366 237.182 372.031 238.04 372.267 238.946C372.504 239.852 373.222 240.463 373.872 240.312Z" fill="#080B09"/>
<path d="M383.503 238.199C384.152 238.047 384.487 237.189 384.251 236.283C384.014 235.377 383.297 234.765 382.647 234.917C381.997 235.069 381.662 235.926 381.899 236.833C382.135 237.739 382.853 238.351 383.503 238.199Z" fill="#080B09"/>
<path d="M370.135 235.425L375.036 234.36C375.118 234.336 375.187 234.284 375.232 234.214C375.277 234.144 375.293 234.062 375.278 233.982C375.223 233.846 375.14 233.721 375.034 233.616C374.927 233.511 374.799 233.427 374.657 233.37C374.515 233.313 374.362 233.284 374.208 233.284C374.054 233.285 373.902 233.315 373.76 233.372L369.917 234.914C369.597 234.988 369.735 235.519 370.135 235.425Z" fill="#080B09"/>
<path d="M386.592 231.272L380.209 233.166C380.166 232.977 380.165 232.782 380.207 232.593C380.249 232.405 380.332 232.226 380.452 232.069C380.571 231.913 380.723 231.782 380.899 231.684C381.075 231.587 381.27 231.526 381.473 231.504L386.573 230.875C386.733 230.838 386.832 231.216 386.592 231.272Z" fill="#080B09"/>
<path d="M377.309 237.282L376.617 242.174L378.442 243.008" fill="#E56441"/>
<path d="M377.309 237.282L376.617 242.174L378.442 243.008" stroke="#E56441" stroke-width="0.94666" stroke-linecap="round"/>
<path d="M382.168 323.064L366.337 327.364L364.402 336.599L368.003 346.819C368.003 346.819 370.536 345.207 370.008 341.445C369.48 337.682 382.858 337.79 385.309 333.06" fill="#FFCCB3"/>
<path d="M418.331 272.164C418.331 272.164 418.227 259.47 428.968 259.468C436.174 259.467 439.621 262.665 440.541 272.644C441.183 279.621 441.648 317.903 441.648 317.903C441.648 317.903 443.46 335.374 427.804 335.701L382.599 334.419L381.579 322.463L420.985 318.745L418.331 272.164Z" fill="#FEBB94"/>
<path d="M385.642 270.576C385.642 270.576 389.719 269.478 389.058 265.688C388.414 261.957 388.389 258.719 389.682 259.17C389.682 259.17 390.823 261.022 397.917 258.964C404.965 256.982 404.523 254.693 404.523 254.693C404.523 254.693 405.52 253.857 406.265 256.004C407.009 258.151 408.897 264.096 412.889 263.669L413.968 274.75L392.739 281.365C392.693 281.442 382.881 272.445 385.642 270.576Z" fill="#FEBB94"/>
<path d="M212.495 491.722H225.852" stroke="white" stroke-width="5" stroke-miterlimit="10" stroke-linecap="round"/>
<path opacity="0.5" d="M215.214 497.209H221.893" stroke="white" stroke-width="5" stroke-miterlimit="10" stroke-linecap="round"/>
<path d="M203.598 480.767L213.847 474.002L221.066 478.553L230.674 471.965" stroke="white" stroke-width="6.50414" stroke-linecap="round" stroke-linejoin="round"/>
<path d="M223.288 469.094H233.509V478.668" stroke="white" stroke-width="6.50414" stroke-linecap="round" stroke-linejoin="round"/>
<path d="M353.847 306.494L360.645 316.055L357.02 299.721L353.847 306.494Z" fill="#FF967C"/>
<defs>
<linearGradient id="paint0_linear_141_81" x1="355.282" y1="4.10488" x2="355.282" y2="753.336" gradientUnits="userSpaceOnUse">
<stop stop-color="white"/>
<stop offset="0.875" stop-color="#F6F5FF" stop-opacity="0"/>
</linearGradient>
<linearGradient id="paint1_linear_141_81" x1="237.037" y1="220.033" x2="246.334" y2="386.763" gradientUnits="userSpaceOnUse">
<stop stop-color="white"/>
<stop offset="1" stop-color="#94B9FF"/>
</linearGradient>
<linearGradient id="paint2_linear_141_81" x1="210.491" y1="269.26" x2="249.466" y2="557.861" gradientUnits="userSpaceOnUse">
<stop stop-color="white"/>
<stop offset="1" stop-color="#94B9FF"/>
</linearGradient>
<linearGradient id="paint3_linear_141_81" x1="322.833" y1="269.26" x2="361.808" y2="557.861" gradientUnits="userSpaceOnUse">
<stop stop-color="white"/>
<stop offset="1" stop-color="#94B9FF"/>
</linearGradient>
<linearGradient id="paint4_linear_141_81" x1="114.61" y1="449.016" x2="124.1" y2="572.427" gradientUnits="userSpaceOnUse">
<stop stop-color="white"/>
<stop offset="1" stop-color="#94B9FF"/>
</linearGradient>
</defs>
</svg>
