<svg width="130" height="120" viewBox="0 0 130 120" fill="none" xmlns="http://www.w3.org/2000/svg">
<g filter="url(#filter0_d_36_12)">
<path d="M24.1323 85H85.258C86.4572 85 87.6446 84.6288 88.7529 83.9068C89.8607 83.1857 90.8677 82.1274 91.7156 80.7941C92.5635 79.4608 93.2359 77.8772 93.6951 76.1352C94.1542 74.3932 94.3902 72.5252 94.3902 70.6393V40.9023C94.3902 39.0164 94.1542 37.1485 93.6951 35.4065C93.2359 33.6645 92.5635 32.0809 91.7156 30.7476C90.8677 29.4143 89.8607 28.356 88.7529 27.6349C87.6446 26.9129 86.4572 26.5417 85.258 26.5417H63.5591L57.1556 16.4721C56.5563 15.5296 55.7431 15 54.8952 15C54.0478 15 53.2346 15.5296 52.6353 16.4721L46.2318 26.5417H24.1323C21.7099 26.5417 19.3872 28.0546 17.6747 30.7476C15.9621 33.4406 15 37.0931 15 40.9023V70.6393C15 74.4485 15.9621 78.1011 17.6747 80.7941C19.3872 83.487 21.7099 85 24.1323 85Z" fill="#5E48E8"/>
<path d="M53.0646 67.7168H56.2215C56.8079 67.716 57.3696 67.4829 57.7836 67.068C58.1985 66.654 58.4316 66.0923 58.4324 65.5058V50.9817C58.4316 50.3952 58.1985 49.8335 57.7836 49.4195C57.3696 49.0046 56.8079 48.7715 56.2215 48.7715H53.0646C52.4782 48.7715 51.9164 49.0046 51.5024 49.4195C51.0875 49.8335 50.8545 50.3952 50.8537 50.9817V65.5058C50.8545 66.0923 51.0875 66.654 51.5024 67.068C51.9164 67.4829 52.4782 67.716 53.0646 67.7168Z" fill="white"/>
<path d="M50.6949 39.6144C49.4315 39.6144 48.7998 40.2461 48.7998 43.4038C48.7998 46.4044 45.8939 48.8194 44.0244 50.0632V65.7099C46.0467 66.6455 50.0948 68.0327 56.3777 68.0327H58.3991C59.59 68.0336 60.7433 67.6135 61.6541 66.8452C62.5641 66.0778 63.1745 65.0133 63.3751 63.8395L64.7896 55.6299C64.9151 54.9042 64.881 54.1599 64.6889 53.4496C64.4969 52.7394 64.1511 52.0795 63.6773 51.5161C63.2027 50.9527 62.612 50.5002 61.9444 50.1895C61.2768 49.8796 60.5495 49.7183 59.8137 49.7183H53.8517C54.5227 48.1211 54.8462 46.3984 54.7993 44.6664C54.7993 40.8778 51.9574 39.6144 50.6949 39.6144Z" fill="white"/>
</g>
<defs>
<filter id="filter0_d_36_12" x="0" y="0" width="129.39" height="120" filterUnits="userSpaceOnUse" color-interpolation-filters="sRGB">
<feFlood flood-opacity="0" result="BackgroundImageFix"/>
<feColorMatrix in="SourceAlpha" type="matrix" values="0 0 0 0 0 0 0 0 0 0 0 0 0 0 0 0 0 0 127 0" result="hardAlpha"/>
<feOffset dx="10" dy="10"/>
<feGaussianBlur stdDeviation="12.5"/>
<feComposite in2="hardAlpha" operator="out"/>
<feColorMatrix type="matrix" values="0 0 0 0 0.298039 0 0 0 0 0.388235 0 0 0 0 0.443137 0 0 0 0.25 0"/>
<feBlend mode="normal" in2="BackgroundImageFix" result="effect1_dropShadow_36_12"/>
<feBlend mode="normal" in="SourceGraphic" in2="effect1_dropShadow_36_12" result="shape"/>
</filter>
</defs>
</svg>
