<svg width="207" height="54" viewBox="0 0 207 54" fill="none" xmlns="http://www.w3.org/2000/svg">
<path d="M73.268 14.872C75.908 14.872 78.224 15.388 80.216 16.42C82.232 17.452 83.78 18.928 84.86 20.848C85.964 22.744 86.516 24.952 86.516 27.472C86.516 29.992 85.964 32.2 84.86 34.096C83.78 35.968 82.232 37.42 80.216 38.452C78.224 39.484 75.908 40 73.268 40H64.484V14.872H73.268ZM73.088 35.716C75.728 35.716 77.768 34.996 79.208 33.556C80.648 32.116 81.368 30.088 81.368 27.472C81.368 24.856 80.648 22.816 79.208 21.352C77.768 19.864 75.728 19.12 73.088 19.12H69.524V35.716H73.088ZM92.8447 17.68C91.9567 17.68 91.2127 17.404 90.6127 16.852C90.0367 16.276 89.7487 15.568 89.7487 14.728C89.7487 13.888 90.0367 13.192 90.6127 12.64C91.2127 12.064 91.9567 11.776 92.8447 11.776C93.7327 11.776 94.4647 12.064 95.0407 12.64C95.6407 13.192 95.9407 13.888 95.9407 14.728C95.9407 15.568 95.6407 16.276 95.0407 16.852C94.4647 17.404 93.7327 17.68 92.8447 17.68ZM95.3287 20.056V40H90.2887V20.056H95.3287ZM108.12 19.732C109.608 19.732 110.916 20.032 112.044 20.632C113.172 21.208 114.06 21.964 114.708 22.9V20.056H119.784V40.144C119.784 41.992 119.412 43.636 118.668 45.076C117.924 46.54 116.808 47.692 115.32 48.532C113.832 49.396 112.032 49.828 109.92 49.828C107.088 49.828 104.76 49.168 102.936 47.848C101.136 46.528 100.116 44.728 99.8762 42.448H104.88C105.144 43.36 105.708 44.08 106.572 44.608C107.46 45.16 108.528 45.436 109.776 45.436C111.24 45.436 112.428 44.992 113.34 44.104C114.252 43.24 114.708 41.92 114.708 40.144V37.048C114.06 37.984 113.16 38.764 112.008 39.388C110.88 40.012 109.584 40.324 108.12 40.324C106.44 40.324 104.904 39.892 103.512 39.028C102.12 38.164 101.016 36.952 100.2 35.392C99.4082 33.808 99.0122 31.996 99.0122 29.956C99.0122 27.94 99.4082 26.152 100.2 24.592C101.016 23.032 102.108 21.832 103.476 20.992C104.868 20.152 106.416 19.732 108.12 19.732ZM114.708 30.028C114.708 28.804 114.468 27.76 113.988 26.896C113.508 26.008 112.86 25.336 112.044 24.88C111.228 24.4 110.352 24.16 109.416 24.16C108.48 24.16 107.616 24.388 106.824 24.844C106.032 25.3 105.384 25.972 104.88 26.86C104.4 27.724 104.16 28.756 104.16 29.956C104.16 31.156 104.4 32.212 104.88 33.124C105.384 34.012 106.032 34.696 106.824 35.176C107.64 35.656 108.504 35.896 109.416 35.896C110.352 35.896 111.228 35.668 112.044 35.212C112.86 34.732 113.508 34.06 113.988 33.196C114.468 32.308 114.708 31.252 114.708 30.028ZM127.263 17.68C126.375 17.68 125.631 17.404 125.031 16.852C124.455 16.276 124.167 15.568 124.167 14.728C124.167 13.888 124.455 13.192 125.031 12.64C125.631 12.064 126.375 11.776 127.263 11.776C128.151 11.776 128.883 12.064 129.459 12.64C130.059 13.192 130.359 13.888 130.359 14.728C130.359 15.568 130.059 16.276 129.459 16.852C128.883 17.404 128.151 17.68 127.263 17.68ZM129.747 20.056V40H124.707V20.056H129.747ZM143.51 14.872C146.15 14.872 148.466 15.388 150.458 16.42C152.474 17.452 154.022 18.928 155.102 20.848C156.206 22.744 156.758 24.952 156.758 27.472C156.758 29.992 156.206 32.2 155.102 34.096C154.022 35.968 152.474 37.42 150.458 38.452C148.466 39.484 146.15 40 143.51 40H134.726V14.872H143.51ZM143.33 35.716C145.97 35.716 148.01 34.996 149.45 33.556C150.89 32.116 151.61 30.088 151.61 27.472C151.61 24.856 150.89 22.816 149.45 21.352C148.01 19.864 145.97 19.12 143.33 19.12H139.766V35.716H143.33ZM159.235 29.956C159.235 27.94 159.631 26.152 160.423 24.592C161.239 23.032 162.331 21.832 163.699 20.992C165.091 20.152 166.639 19.732 168.343 19.732C169.831 19.732 171.127 20.032 172.231 20.632C173.359 21.232 174.259 21.988 174.931 22.9V20.056H180.007V40H174.931V37.084C174.283 38.02 173.383 38.8 172.231 39.424C171.103 40.024 169.795 40.324 168.307 40.324C166.627 40.324 165.091 39.892 163.699 39.028C162.331 38.164 161.239 36.952 160.423 35.392C159.631 33.808 159.235 31.996 159.235 29.956ZM174.931 30.028C174.931 28.804 174.691 27.76 174.211 26.896C173.731 26.008 173.083 25.336 172.267 24.88C171.451 24.4 170.575 24.16 169.639 24.16C168.703 24.16 167.839 24.388 167.047 24.844C166.255 25.3 165.607 25.972 165.103 26.86C164.623 27.724 164.383 28.756 164.383 29.956C164.383 31.156 164.623 32.212 165.103 33.124C165.607 34.012 166.255 34.696 167.047 35.176C167.863 35.656 168.727 35.896 169.639 35.896C170.575 35.896 171.451 35.668 172.267 35.212C173.083 34.732 173.731 34.06 174.211 33.196C174.691 32.308 174.931 31.252 174.931 30.028ZM189.969 22.972C190.617 22.012 191.505 21.232 192.633 20.632C193.785 20.032 195.093 19.732 196.557 19.732C198.261 19.732 199.797 20.152 201.165 20.992C202.557 21.832 203.649 23.032 204.441 24.592C205.257 26.128 205.665 27.916 205.665 29.956C205.665 31.996 205.257 33.808 204.441 35.392C203.649 36.952 202.557 38.164 201.165 39.028C199.797 39.892 198.261 40.324 196.557 40.324C195.069 40.324 193.761 40.036 192.633 39.46C191.529 38.86 190.641 38.092 189.969 37.156V40H184.929V13.36H189.969V22.972ZM200.517 29.956C200.517 28.756 200.265 27.724 199.761 26.86C199.281 25.972 198.633 25.3 197.817 24.844C197.025 24.388 196.161 24.16 195.225 24.16C194.313 24.16 193.449 24.4 192.633 24.88C191.841 25.336 191.193 26.008 190.689 26.896C190.209 27.784 189.969 28.828 189.969 30.028C189.969 31.228 190.209 32.272 190.689 33.16C191.193 34.048 191.841 34.732 192.633 35.212C193.449 35.668 194.313 35.896 195.225 35.896C196.161 35.896 197.025 35.656 197.817 35.176C198.633 34.696 199.281 34.012 199.761 33.124C200.265 32.236 200.517 31.18 200.517 29.956Z" fill="black"/>
<path d="M2 14.8L22.4 4L32.2 9.8M2 14.8V38.8L22.4 50M2 14.8L12.2 21.2M42 15.6V38.8L22.4 50M42 15.6L22.4 27.6M42 15.6L32.2 9.8M22.4 50V27.6M22.4 27.6L12.2 21.2M32.2 9.8L12.2 21.2" stroke="#5028C6" stroke-width="4"/>
</svg>
