<svg width="72" height="72" viewBox="0 0 72 72" fill="none" xmlns="http://www.w3.org/2000/svg">
<circle cx="36" cy="36" r="36" fill="#D1E6F9"/>
<g clip-path="url(#clip0_134_84)">
<path d="M35.8452 21.04C35.8942 21.0131 35.9493 20.9994 36.0052 21C36.0603 20.9998 36.1145 21.0135 36.1627 21.04C36.2199 21.0743 36.2666 21.1236 36.2977 21.1825L53.4402 50.35C53.5302 50.5 53.5277 50.66 53.4452 50.8075C53.4135 50.868 53.3671 50.9196 53.3102 50.9575C53.2607 50.9879 53.2032 51.0027 53.1452 51H18.8652C18.8072 51.0028 18.7497 50.988 18.7002 50.9575C18.6434 50.9196 18.5969 50.868 18.5652 50.8075C18.524 50.7381 18.5027 50.6587 18.5036 50.578C18.5045 50.4974 18.5275 50.4185 18.5702 50.35L35.7102 21.1825C35.7415 21.1236 35.7881 21.0744 35.8452 21.04ZM38.4552 19.915C38.2078 19.4839 37.8509 19.1258 37.4207 18.8767C36.9906 18.6276 36.5023 18.4965 36.0052 18.4965C35.5082 18.4965 35.0199 18.6276 34.5897 18.8767C34.1595 19.1258 33.8027 19.4839 33.5552 19.915L16.4127 49.0825C15.2702 51.0275 16.6402 53.5 18.8627 53.5H53.1452C55.3677 53.5 56.7402 51.025 55.5952 49.0825L38.4552 19.915Z" fill="#489BE8"/>
<path d="M33.5049 46C33.5049 45.6717 33.5695 45.3466 33.6952 45.0433C33.8208 44.74 34.005 44.4644 34.2371 44.2322C34.4693 44.0001 34.7449 43.8159 35.0482 43.6903C35.3515 43.5647 35.6766 43.5 36.0049 43.5C36.3332 43.5 36.6583 43.5647 36.9616 43.6903C37.2649 43.8159 37.5405 44.0001 37.7726 44.2322C38.0048 44.4644 38.1889 44.74 38.3146 45.0433C38.4402 45.3466 38.5049 45.6717 38.5049 46C38.5049 46.663 38.2415 47.2989 37.7726 47.7678C37.3038 48.2366 36.6679 48.5 36.0049 48.5C35.3418 48.5 34.706 48.2366 34.2371 47.7678C33.7683 47.2989 33.5049 46.663 33.5049 46ZM33.7499 30.9875C33.7166 30.6721 33.75 30.3532 33.8479 30.0516C33.9458 29.7499 34.106 29.4722 34.3182 29.2365C34.5303 29.0007 34.7897 28.8122 35.0794 28.6832C35.3691 28.5542 35.6827 28.4875 35.9999 28.4875C36.317 28.4875 36.6306 28.5542 36.9204 28.6832C37.2101 28.8122 37.4694 29.0007 37.6816 29.2365C37.8937 29.4722 38.054 29.7499 38.1519 30.0516C38.2498 30.3532 38.2832 30.6721 38.2499 30.9875L37.3749 39.755C37.3455 40.0994 37.1879 40.4203 36.9333 40.6541C36.6787 40.8879 36.3456 41.0176 35.9999 41.0176C35.6542 41.0176 35.3211 40.8879 35.0665 40.6541C34.8119 40.4203 34.6543 40.0994 34.6249 39.755L33.7499 30.9875Z" fill="#489BE8"/>
</g>
<defs>
<clipPath id="clip0_134_84">
<rect width="40" height="40" fill="white" transform="translate(16 16)"/>
</clipPath>
</defs>
</svg>
