<svg width="528" height="442" viewBox="0 0 528 442" fill="none" xmlns="http://www.w3.org/2000/svg">
<path d="M428.553 69H375.098C371.496 69 368.575 71.92 368.575 75.5226V133.395C368.575 136.997 371.496 139.917 375.098 139.917H428.553C432.155 139.917 435.075 136.997 435.075 133.395V75.5226C435.075 71.92 432.155 69 428.553 69Z" fill="#897CEF" fill-opacity="0.79"/>
<path d="M376.676 122.306H393.812" stroke="white" stroke-width="7.4328" stroke-miterlimit="10" stroke-linecap="round"/>
<path opacity="0.4" d="M376.676 130.303H412.089" stroke="white" stroke-width="7.4328" stroke-miterlimit="10" stroke-linecap="round"/>
<path d="M377.055 89.1058H385.917C386.568 89.1058 387.208 89.2762 387.773 89.6002C388.337 89.9243 388.808 90.3909 389.136 90.953L397.715 105.626C398.053 106.202 398.539 106.678 399.123 107.003C399.706 107.327 400.367 107.489 401.035 107.471C401.702 107.453 402.354 107.256 402.919 106.9C403.485 106.545 403.944 106.044 404.251 105.45L409.554 95.1492C409.865 94.5457 410.334 94.0392 410.909 93.6826C411.486 93.3266 412.152 93.1342 412.828 93.1269L428.395 92.9601" stroke="white" stroke-width="4" stroke-miterlimit="10" stroke-linecap="round"/>
<path opacity="0.4" d="M377.055 104.889H381.413C382.398 104.889 383.343 104.499 384.041 103.805L404.188 83.797C404.887 83.1028 405.831 82.7137 406.816 82.7137H412.713C413.557 82.7137 414.375 82.999 415.036 83.5233C415.696 84.0471 416.158 84.7796 416.346 85.6002L419.445 98.9437C419.634 99.7643 420.095 100.496 420.756 101.021C421.417 101.545 422.235 101.83 423.073 101.83H428.395" stroke="white" stroke-width="4" stroke-miterlimit="10" stroke-linecap="round"/>
<path d="M504.732 422.073C504.732 422.073 502.776 441.783 468.816 441.783H428.998L481.819 400.715L504.732 422.073Z" fill="#5661AE"/>
<path d="M425.721 193.659L519.224 214.376C520.058 214.554 520.85 214.883 521.563 215.347C524.148 217.053 528.767 222.043 527.881 235.688C526.696 253.875 504.732 422.073 504.732 422.073L414.957 344.351L425.721 193.659Z" fill="#5661AE"/>
<path d="M415.728 193.124L509.912 213.993C509.912 213.993 517.971 216.928 517.887 235.154C517.803 253.379 494.738 421.539 494.738 421.539L404.961 343.816L415.728 193.124Z" fill="#CDD5FF"/>
<path d="M417.259 202.731C417.259 202.731 418.916 226.739 419.644 230.543C420.924 237.207 450.202 223.207 448.052 217.274C446.941 214.195 441.871 184.86 441.871 184.86L417.259 202.731Z" fill="#BC775C"/>
<path d="M419.817 229.621L417.311 205.043H432.149L419.817 229.621Z" fill="#93523E" stroke="#93523E"/>
<path d="M454.475 179.714C455.608 167.627 441.897 170.233 439.553 170.778C437.209 171.324 433.539 153.412 433.539 153.412C433.539 153.412 406.488 148.595 400.693 153.401C400.693 153.401 397.057 175.977 396.471 190.435C395.885 204.893 399.94 211.368 405.24 211.863C412.461 213.157 421.002 211.7 426.461 208.483C436.182 202.751 440.334 192.385 440.334 192.385C440.507 192.306 440.602 192.264 440.602 192.264C440.602 192.264 453.411 191.13 454.475 179.714Z" fill="#BC775C"/>
<path d="M399.924 189.978C402.255 188.501 408.149 188.63 410.543 189.098C415.104 189.992 416.504 190.584 417.017 191.644C417.531 192.702 417.631 193.873 415.728 193.124C413.819 192.375 409.833 191.006 406.284 191.103C404.635 191.272 403.002 191.57 401.399 191.994C399.549 192.549 397.822 191.31 399.924 189.978Z" fill="#493212"/>
<path d="M398.275 175.225C398.275 175.225 399.813 161.7 400.008 157.955C400.29 152.568 404.226 154.302 407.046 158.08C411.103 163.69 418.842 163.335 425.349 161.575C431.059 160.183 431.143 160.511 431.662 166.541C432.186 172.571 434.131 183.769 435.961 181.089C438.237 177.582 439.789 174.297 443.79 172.162C449.227 169.261 454.806 174.613 453.495 178.747C452.184 182.881 449.117 187.64 442.269 191.548L445.619 207.073C462.592 183.531 468.983 151.198 445.965 143.712C437.367 140.914 428.437 122.788 411.795 126.912C400.008 129.833 400.008 139.283 399.17 147.501C383.331 148.186 398.275 175.225 398.275 175.225Z" fill="#493212"/>
<path d="M418.627 179.678C418.952 177.965 418.302 176.403 417.18 176.191C416.058 175.978 414.884 177.195 414.564 178.909C414.239 180.623 414.884 182.184 416.006 182.396C417.128 182.609 418.302 181.392 418.627 179.678Z" fill="#080B09"/>
<path d="M403.175 176.652C403.5 174.938 402.852 173.377 401.73 173.165C400.607 172.952 399.434 174.169 399.11 175.883C398.785 177.597 399.433 179.158 400.555 179.371C401.678 179.583 402.851 178.366 403.175 176.652Z" fill="#080B09"/>
<path d="M406.338 181.089C406.338 181.089 408.348 184.708 405.594 184.841C402.961 184.879 401.471 186.467 404.189 188.63" stroke="#93523E" stroke-width="1.51544" stroke-linecap="round"/>
<path d="M404.731 191.648C406.367 191.72 409.637 191.863 411.816 191.994C411.947 192.001 412.073 192.043 412.178 192.116C412.288 192.189 412.372 192.291 412.43 192.41C412.482 192.529 412.503 192.661 412.487 192.791C412.477 192.921 412.424 193.045 412.346 193.148C410.456 195.349 406.069 199.355 404.082 192.562C404.033 192.459 404.013 192.345 404.022 192.231C404.032 192.117 404.072 192.008 404.138 191.915C404.204 191.821 404.295 191.747 404.398 191.701C404.503 191.654 404.618 191.636 404.731 191.648Z" fill="white"/>
<path d="M423.818 173.916L423.676 174.229C423.503 174.703 423.152 175.091 422.701 175.307C422.245 175.523 421.72 175.551 421.249 175.384L413.153 172.297C412.755 172.164 412.419 171.886 412.22 171.519C412.015 171.151 411.958 170.721 412.057 170.313C412.104 170.061 412.209 169.822 412.356 169.611C412.508 169.401 412.697 169.225 412.917 169.094C413.143 168.963 413.389 168.881 413.641 168.853C413.898 168.824 414.16 168.851 414.401 168.93L422.638 171.704C422.864 171.768 423.073 171.877 423.257 172.024C423.44 172.171 423.587 172.353 423.697 172.56C423.807 172.766 423.875 172.992 423.896 173.226C423.917 173.458 423.891 173.693 423.818 173.916Z" fill="#080B09"/>
<path d="M396.613 167.226L405.267 166.397C405.523 166.376 405.781 166.409 406.023 166.495C406.266 166.581 406.488 166.717 406.674 166.895C406.86 167.073 407.006 167.288 407.103 167.526C407.199 167.765 407.244 168.021 407.235 168.278C407.239 168.697 407.085 169.103 406.804 169.415C406.523 169.727 406.135 169.921 405.717 169.961L397.133 171.126C396.633 171.181 396.13 171.035 395.737 170.721C395.343 170.407 395.089 169.95 395.031 169.449L394.962 169.112C394.942 168.878 394.969 168.643 395.043 168.422C395.116 168.199 395.233 167.994 395.387 167.818C395.541 167.642 395.729 167.499 395.94 167.397C396.151 167.295 396.379 167.237 396.613 167.226Z" fill="#080B09"/>
<path d="M23.259 422.073C23.259 422.073 25.2142 441.783 59.178 441.783H98.9927L46.1737 400.715L23.259 422.073Z" fill="#5661AE"/>
<path d="M102.273 193.659L8.76877 214.376C7.93666 214.554 7.14389 214.883 6.43028 215.347C3.84378 217.053 -0.776064 222.043 0.11162 235.688C1.2945 253.875 23.2596 422.074 23.2596 422.074L113.037 344.351L102.273 193.659Z" fill="#5661AE"/>
<path d="M112.267 193.124L18.0783 213.993C18.0783 213.993 10.0215 216.928 10.1054 235.154C10.1898 253.379 33.2533 421.539 33.2533 421.539L123.031 343.816L112.267 193.124Z" fill="#CDD5FF"/>
<path d="M153.031 279.89L162.17 292.68C163.476 294.506 165.153 296.034 167.092 297.164C169.031 298.295 171.187 299.001 173.419 299.236L233.241 305.549L234.15 320.531L161.153 324.963C157.041 325.213 152.93 324.449 149.181 322.739C145.432 321.03 142.161 318.426 139.653 315.157L120.089 289.652L153.031 279.89Z" fill="#FFCCB3"/>
<path d="M158.747 287.889C158.747 287.889 139.941 292.855 134.443 308.365L125.072 294.514L156.726 285.061L158.747 287.889Z" fill="#FF967C"/>
<path d="M112.854 231.643C112.854 231.643 131.153 236.977 136.247 243.135C140.212 247.928 146.952 267.839 152.233 277.428C153.51 279.745 155.321 279.955 153.975 282.233C148.41 291.655 143.64 305.388 134.443 308.365C103.66 303.715 112.854 231.643 112.854 231.643Z" fill="#5661AE"/>
<path d="M132.631 258.927C132.631 258.927 144.843 281.075 146.697 292.977C146.697 292.977 142.349 304.012 139.279 306.256C134.491 309.758 131.861 307.791 131.861 307.791L132.631 258.927Z" fill="#465393"/>
<path d="M68.8028 186.906C85.6814 186.906 99.3637 173.223 99.3637 156.345C99.3637 139.466 85.6814 125.783 68.8028 125.783C51.9242 125.783 38.2419 139.466 38.2419 156.345C38.2419 173.223 51.9242 186.906 68.8028 186.906Z" fill="#080B09"/>
<path d="M94.6958 140.051C94.6958 140.051 55.2539 133.087 50.6267 180.915C50.6267 180.915 54.578 185.164 60.2654 185.628C60.2654 185.628 64.8842 139.221 97.0054 142.807L94.6958 140.051Z" fill="#FEBB94"/>
<path d="M86.3339 141.874C86.3339 141.874 81.798 139.52 85.216 136.805C87.3747 135.005 89.094 132.736 90.2422 130.171C91.3234 130.77 92.1361 131.757 92.5173 132.932C92.8985 134.108 92.8193 135.384 92.2955 136.503C90.5437 140.826 89.4479 141.069 89.4479 141.069L86.3339 141.874Z" fill="#FEBB94"/>
<path d="M86.1043 139.272C86.1043 139.272 84.8553 144.228 81.4283 141.525C79.18 139.838 76.5767 138.686 73.8162 138.157C74.1507 136.967 74.9246 135.95 75.9811 135.308C77.0376 134.668 78.2981 134.452 79.5077 134.704C84.1176 135.415 84.6057 136.427 84.6057 136.427L86.1043 139.272Z" fill="#FEBB94"/>
<path d="M94.8469 210.063L99.6754 228.028C99.6754 228.028 136.537 269.851 105.943 285.061C100.565 287.734 74.8648 267.189 70.0394 262.634C65.2136 258.079 67.2144 231.172 67.2144 231.172L78.295 192.74L94.8469 210.063Z" fill="#FFCCB3"/>
<path d="M83.9846 267.063C83.9846 267.063 101.992 278.382 120.089 267.879C120.089 267.879 117.3 283.472 106.33 288.491C95.3599 293.51 83.9846 267.063 83.9846 267.063Z" fill="#1C85E8"/>
<path d="M95.7974 213.237L86.1162 206.904L100.451 231.013L95.7974 213.237Z" fill="#FF967C"/>
<path d="M120.303 165.855C120.303 165.855 125.425 192.799 116.273 208.506C110.305 218.75 102.106 219.039 86.1163 206.904C71.4557 195.777 68.4675 189.125 68.4675 189.125L72.0513 161.114C72.0513 161.114 114.435 141.555 120.303 165.855Z" fill="#FFCCB3"/>
<path d="M99.6753 228.029C99.6753 228.029 117.801 232.505 120.723 234.565C123.646 236.626 127.397 254.662 132.66 263.014C137.922 271.367 145.111 284.564 135.876 299.826C126.641 315.089 127.473 329.693 127.473 329.693L134.463 368.006H56.6166C53.3626 368.303 51.6318 360.058 51.7288 356.792C52.0476 346.02 53.0684 342.809 52.3805 325.729C51.4488 302.581 42.8037 236.912 42.8037 236.912L68.4674 227.382C67.6783 263.511 88.6681 255.625 106.33 288.491C120.787 260.721 99.6753 228.029 99.6753 228.029Z" fill="#5661AE"/>
<path d="M59.6991 255.625C59.6991 255.625 63.5083 263.565 60.5002 271.675C57.1178 280.794 53.3956 303.014 69.882 304.413C90.0895 306.13 81.6064 309.793 72.458 312.601C63.309 315.408 67.1104 315.18 67.6945 324.799C68.1103 331.645 49.7059 345.544 51.4011 340.239C60.4966 311.772 29.587 276.597 59.6991 255.625Z" fill="#465393"/>
<path d="M103.54 200.772L113.239 202.388C113.202 202.47 113.158 202.567 113.104 202.675C112.929 203.028 112.659 203.495 112.283 203.958C111.531 204.883 110.369 205.772 108.68 205.731C106.035 205.428 104.761 204.105 104.136 202.874C103.82 202.251 103.666 201.646 103.593 201.195C103.566 201.03 103.55 200.887 103.54 200.772Z" fill="#E56441" stroke="#E56441"/>
<path d="M118.331 188.789C119.417 188.736 120.235 187.395 120.156 185.794C120.077 184.193 119.133 182.938 118.047 182.991C116.96 183.044 116.143 184.385 116.221 185.987C116.3 187.588 117.244 188.843 118.331 188.789Z" fill="#080B09"/>
<path d="M102.291 189.805C103.377 189.752 104.194 188.411 104.116 186.809C104.037 185.208 103.093 183.953 102.007 184.007C100.92 184.06 100.103 185.401 100.182 187.002C100.26 188.603 101.204 189.858 102.291 189.805Z" fill="#080B09"/>
<path d="M121.743 179.007L113.585 179.541C113.445 179.538 113.312 179.485 113.208 179.392C113.105 179.298 113.039 179.17 113.023 179.032C113.04 178.782 113.108 178.538 113.222 178.315C113.337 178.092 113.496 177.895 113.688 177.735C113.881 177.575 114.104 177.456 114.345 177.385C114.585 177.314 114.837 177.292 115.085 177.32L121.831 178.063C122.366 178.037 122.412 178.974 121.743 179.007Z" fill="#080B09"/>
<path d="M94.066 179.85L104.941 179.989C104.914 179.658 104.819 179.337 104.661 179.046C104.503 178.755 104.285 178.5 104.022 178.298C103.76 178.096 103.458 177.951 103.136 177.873C102.813 177.795 102.479 177.785 102.153 177.844L93.8993 179.188C93.6319 179.201 93.6649 179.87 94.066 179.85Z" fill="#080B09"/>
<path d="M111.484 185.407L114.973 193.133L112.541 195.357" stroke="#E56441" stroke-width="1.66686" stroke-linecap="round"/>
<path d="M110.293 170.036C104.596 170.075 101.928 168.754 95.9516 171.566C94.0656 172.453 92.2813 173.341 91.1996 175.516C90.0409 179.89 90.7838 185.966 83.0747 185.797C83.0747 185.797 85.5683 177.497 80.2711 176.436C71.2757 174.635 72.7218 189.19 78.2949 192.74C82.0821 195.153 75.5757 212.56 70.7357 218.958C54.1806 180.27 59.9262 176.374 64.2304 166.275C71.5442 149.114 77.9525 143.889 95.2663 141.051C95.2663 141.051 118.206 141.671 124.287 161.852C129.486 179.105 121.683 185.72 121.683 185.72C121.683 185.72 121.926 172.882 120.656 171.566C118.985 169.835 117.63 169.985 110.293 170.036Z" fill="#080B09"/>
<path d="M388.642 378.865L323.727 390.397L336.505 441.783H378.086C378.086 441.783 397.851 399.297 388.642 378.865Z" fill="#FFCCB3"/>
<path d="M347.197 383.366C347.197 383.366 357.201 386.447 361.331 402.764C365.461 419.081 360.955 441.783 360.955 441.783H367.387C367.387 441.783 390.326 414.845 373.45 380.515L347.197 383.366Z" fill="#FF967C"/>
<path d="M482.899 362.672C482.899 362.672 487.901 400.027 480.435 417.833C474.08 432.976 464.264 441.561 452.346 441.783H360.954C360.954 441.783 360.81 392.967 322.263 384.628C322.263 384.628 449.127 349.294 482.899 362.672Z" fill="#1F2D49"/>
<path d="M484.655 374.001L401.732 376.731L402.614 370.939L418.774 369.071H484.54L484.655 374.001Z" fill="#0D1B33"/>
<path d="M420.3 227.68C419.587 230.704 419.403 220.005 417.961 220.452C411.36 222.497 392.577 228.359 388.581 230.03C383.715 232.066 383.39 240.21 383.065 245.978C382.838 250.02 388.853 306.755 389.153 345.192C389.217 353.403 380.907 363.015 379.924 367.58C379.65 368.809 379.504 370.063 379.487 371.322C379.482 372.199 379.826 373.044 380.442 373.668C381.059 374.293 381.898 374.647 382.776 374.654L481.798 375.58C481.798 375.58 486.187 376.218 485.128 371.208C484.079 365.728 483.507 360.168 483.408 354.59C482.422 314.668 482.233 247.809 481.803 244.643C481.153 239.893 486.255 235.802 480.728 233.411L450.061 221.158C450.061 221.158 444.44 225.259 443.627 225.674C428.222 233.552 420.3 227.68 420.3 227.68Z" fill="#897CEF"/>
<path d="M426.681 231.754C426.681 231.754 423.178 244.615 424.798 257.037C426.413 269.46 420.032 286.456 418.711 300.095C417.39 313.734 423.86 331.603 422.848 343.052C421.841 354.501 425.512 375.606 425.512 375.606" stroke="#5661AE" stroke-width="3" stroke-miterlimit="10"/>
<path d="M149.12 369.344L214.035 380.876L201.258 432.262H159.676C159.676 432.262 139.911 389.776 149.12 369.344Z" fill="#FFCCB3"/>
<path d="M190.565 373.845C190.565 373.845 180.561 376.926 176.431 393.243C172.302 409.56 176.808 432.262 176.808 432.262H170.375C170.375 432.262 147.437 405.324 164.313 370.994L190.565 373.845Z" fill="#FF967C"/>
<path d="M52.9392 355.568C52.9392 355.568 41.4355 377.16 42.804 405.633C44.1043 432.675 58.8987 441.783 82.2868 441.783L176.808 432.262C176.808 432.262 176.952 383.446 215.499 375.107C215.499 375.107 172.582 343.867 129.17 351.716C107.863 355.568 94.4763 360.255 52.9392 355.568Z" fill="#1F2D49"/>
<path d="M51.3221 348.35C51.3221 348.35 112.54 354.746 135.103 337.886L134.094 351.961C134.094 351.961 95.9433 373.157 52.2223 361.229C52.2223 361.229 45.6672 356.626 51.3221 348.35Z" fill="#1C85E8"/>
<path d="M238.141 326.74C238.141 326.74 256.327 322.933 263.858 324.677C271.533 326.263 287.686 330.304 284.793 342.147C282.791 350.602 273.964 347.252 273.964 347.252C273.964 347.252 276.262 350.629 272.846 352.17C270.763 353.035 257.327 345.666 257.327 345.666C248.36 348.55 236.659 342.461 236.659 342.461L238.141 326.74Z" fill="#FFCCB3"/>
<path d="M264.014 342.744L273.812 347.26" stroke="#FF967C" stroke-width="2.89316" stroke-linecap="round" stroke-linejoin="round"/>
<path d="M266.206 335.039C268.66 335.522 279.709 340.734 279.709 340.734" stroke="#FF967C" stroke-width="2.89316" stroke-linecap="round" stroke-linejoin="round"/>
<path d="M267.58 329.197C272.501 330.427 277.209 332.39 281.546 335.02" stroke="#FF967C" stroke-width="2.89316" stroke-linecap="round" stroke-linejoin="round"/>
<path d="M157.288 267.879H354.661L454.544 432.262H75.6824L157.288 267.879Z" fill="url(#paint0_linear_59_267)"/>
<path d="M317.964 337.969L324.581 378.03L361.331 402.764L422.853 396.117L407.74 378.03L317.964 337.969Z" fill="#96BAFD"/>
<path d="M282.602 298.197L310.15 348.991L351.171 387.907L317.964 337.969L282.602 298.197Z" fill="white"/>
<path d="M282.602 298.197L310.15 348.991L307.493 351.034L280.358 299.569L282.602 298.197Z" fill="#5CA4E6"/>
<path d="M310.15 348.991L351.171 387.907V390.4L307.493 351.034L310.15 348.991Z" fill="#5CA4E6"/>
<path d="M351.171 390.4L407.74 380.06V378.03L351.171 387.907V390.4Z" fill="#5CA4E6"/>
<path d="M407.74 378.03L370.888 330.863L317.964 337.969L351.171 387.907L407.74 378.03Z" fill="#E7EFFF"/>
<path d="M70.4936 259.034L61.9508 308.155C61.7353 309.382 61.0573 310.481 60.0569 311.226C59.0559 311.97 57.8086 312.302 56.5706 312.155C56.5706 312.155 32.4967 310.572 24.4829 309.904C22.5954 309.747 17.4653 305.094 19.0336 297.43C20.4713 286.962 27.2052 262.517 31.4633 248.943C33.4463 242.19 54.6516 246.233 54.6516 246.233L70.4936 259.034Z" fill="#5661AE"/>
<path d="M50.5104 275.845C61.6738 275.845 70.7231 266.795 70.7231 255.632C70.7231 244.469 61.6738 235.419 50.5104 235.419C39.3475 235.419 30.2976 244.469 30.2976 255.632C30.2976 266.795 39.3475 275.845 50.5104 275.845Z" fill="#5661AE"/>
<path d="M25.0351 312.633L25.3655 308.717L55.3359 312.131L54.8719 315.463L52.3221 336.479L23.1816 333.336L25.0351 312.633Z" fill="#FFCCB3"/>
<path d="M25.5112 308.684L55.3359 312.13L54.8719 315.463C48.095 314.714 32.9011 313.439 25.0352 312.633L25.5112 308.684Z" fill="#FF967C"/>
<path d="M37.6371 348.781C45.7406 348.781 52.3099 342.212 52.3099 334.108C52.3099 326.004 45.7406 319.435 37.6371 319.435C29.5332 319.435 22.9639 326.004 22.9639 334.108C22.9639 342.212 29.5332 348.781 37.6371 348.781Z" fill="#FFCCB3"/>
<path d="M44.8796 346.74L127.688 307.866C127.688 307.866 132.655 290.207 127.254 293.139C121.717 296.136 33.4976 319.983 33.4976 319.983L44.8796 346.74Z" fill="#FFCCB3"/>
<path d="M175.057 309.816L139.85 315.967C137.583 316.363 136.075 314.788 136.483 312.449L147.309 250.391C147.717 248.052 149.887 245.834 152.155 245.437L187.361 239.286C189.629 238.89 191.137 240.465 190.729 242.805L179.903 304.863C179.495 307.202 177.326 309.42 175.057 309.816Z" fill="#1C85E8"/>
<path d="M176.637 309.54L141.431 315.691C139.162 316.088 137.655 314.512 138.063 312.173L148.889 250.115C149.297 247.775 151.467 245.558 153.735 245.161L188.941 239.01C191.209 238.614 192.717 240.189 192.309 242.528L181.483 304.586C181.074 306.926 178.905 309.143 176.637 309.54Z" fill="#B2CDFF"/>
<path d="M122.258 294.867L126.346 308.192C126.346 308.192 143.28 304.131 146.903 302.353C153.967 298.721 161.564 293.822 162.454 291.96C165.179 287.249 165.5 281.421 165.188 277.35C165.149 276.745 164.96 276.159 164.641 275.644C164.322 275.128 163.88 274.7 163.356 274.395C162.832 274.091 162.241 273.92 161.635 273.898C161.029 273.875 160.427 274.002 159.882 274.267L145.058 281.666C145.058 281.666 143.128 278.405 145.07 275.814C146.321 274.103 144.391 270.843 143.533 269.844C143.195 269.382 141.39 269.368 140.981 269.835C140.291 270.717 141.24 273.778 139.784 275.721C137.305 278.832 139.506 280.183 133.123 285.486C128.074 289.645 122.206 294.739 122.258 294.867Z" fill="#FFCCB3"/>
<path d="M150.926 283.919C155.144 282.498 163.745 277.489 163.745 277.489" stroke="#FF967C" stroke-width="2.09903" stroke-linecap="round" stroke-linejoin="round"/>
<path d="M150.372 289.543C153.767 288.308 162.73 283.451 162.73 283.451" stroke="#FF967C" stroke-width="2.09903" stroke-linecap="round" stroke-linejoin="round"/>
<path d="M152.417 294.556C154.655 293.793 161.31 290.627 161.31 290.627" stroke="#FF967C" stroke-width="2.09903" stroke-linecap="round" stroke-linejoin="round"/>
<path d="M24.5352 307.118C23.8095 310.036 23.8787 313.094 24.7354 315.976C24.7354 315.976 39.1534 322.96 54.3877 319.452C55.4143 318.574 56.1662 317.419 56.5531 316.124C56.9401 314.83 56.9464 313.452 56.5704 312.155L24.5352 307.118Z" fill="#5661AE"/>
<path d="M454.03 254.886C454.03 254.886 449.589 279.191 452.347 302.958C454.072 317.831 463.557 333.098 463.436 340.197C463.242 351.69 450.102 356.559 450.066 363.213C450.04 367.151 460.678 364.701 465.381 363.17C475.946 359.73 482.889 364.405 482.889 364.405L480.073 263.57L454.03 254.886Z" fill="#5661AE"/>
<path d="M482.259 248.976C472.512 236.776 468.139 242.619 464.715 242.917C464.715 242.917 453.117 245.078 454.03 254.886C454.994 265.264 472.056 334.424 472.056 334.424L507.873 331.732L506.174 322.195L502.677 302.553L498.949 281.551L498.618 279.051L494.429 251.422C494.429 251.422 487.309 255.491 482.259 248.976Z" fill="#897CEF"/>
<path d="M484.666 270.035C494.188 264.189 497.171 251.73 491.325 242.207C485.479 232.685 473.021 229.705 463.499 235.551C453.972 241.397 450.994 253.856 456.84 263.378C462.686 272.9 475.144 275.881 484.666 270.035Z" fill="#897CEF"/>
<path d="M398.942 337.295L376.361 338.975L371.023 351.565L372.847 367.107C372.847 367.107 376.733 365.523 377.135 360.026C377.537 354.528 395.514 358.428 400.213 352.39" fill="#BC775C"/>
<path d="M485.08 316.93L397.468 333.444C396.941 333.565 396.478 333.877 396.168 334.319C395.858 334.761 395.722 335.303 395.787 335.839L397.908 352.51C398.018 353.307 398.421 354.035 399.038 354.552C399.655 355.069 400.442 355.337 401.246 355.306L491.493 351.776L485.08 316.93Z" fill="#897CEF"/>
<path d="M490.26 351.911C500.16 351.911 508.187 343.884 508.187 333.983C508.187 324.082 500.16 316.056 490.26 316.056C480.361 316.056 472.334 324.082 472.334 333.983C472.334 343.884 480.361 351.911 490.26 351.911Z" fill="#897CEF"/>
<path d="M399.605 252.47C402.53 238.029 395.651 238.401 393.362 236.104C393.362 236.104 384.773 229.022 378.229 235.624C371.302 242.607 331.593 296.856 331.593 296.856L356.438 319.707L361.109 314.134L373.206 299.706L386.146 284.285L387.753 282.529L405.208 262.758C405.208 262.758 397.951 260.073 399.605 252.47Z" fill="#897CEF"/>
<path d="M409.996 254.931C413.347 244.931 407.954 234.11 397.955 230.761C387.956 227.411 377.134 232.803 373.785 242.802C370.436 252.801 375.827 263.623 385.826 266.972C395.826 270.322 406.647 264.931 409.996 254.931Z" fill="#897CEF"/>
<path d="M386.146 284.285C385.403 276.258 382.741 264.234 382.741 264.234C382.741 264.234 380.442 264.022 373.349 279.871C368.096 291.749 362.002 303.855 360.994 314.096L373.091 299.667L386.146 284.285Z" fill="#5661AE"/>
<path d="M337.628 226.537C336.335 214.325 339.658 213.733 339.703 207.112C339.727 200.641 349.497 188.662 344.837 188.904C340.177 189.146 336.905 193.599 336.905 193.599C336.214 187.795 337.381 178.135 331.442 174.491C325.502 170.846 324.103 172.61 319.266 174.06C306.354 178.025 313.562 195.112 313.694 200.526C313.811 203.934 319.804 216.682 320.076 219.033L321.985 228.099L337.628 226.537Z" fill="#BC775C"/>
<path d="M330.269 191.549L328.503 174.018L330.269 191.549Z" fill="#93523E"/>
<path d="M330.269 191.549L328.503 174.018" stroke="#93523E" stroke-width="1.51544" stroke-linecap="round"/>
<path d="M324.229 191.743L321.356 174.903L324.229 191.743Z" fill="#93523E"/>
<path d="M324.229 191.743L321.356 174.903" stroke="#93523E" stroke-width="1.51544" stroke-linecap="round"/>
<path d="M317.133 191.782L315.68 181.704L317.133 191.782Z" fill="#93523E"/>
<path d="M317.133 191.782L315.68 181.704" stroke="#93523E" stroke-width="1.51544" stroke-linecap="round"/>
<path d="M326.921 204.93C329.031 199.999 334.505 195.252 334.505 195.252L326.921 204.93Z" fill="#93523E"/>
<path d="M326.921 204.93C329.031 199.999 334.505 195.252 334.505 195.252" stroke="#93523E" stroke-width="1.51544" stroke-linecap="round"/>
<path d="M360.251 301.725L340.905 228.095C340.76 227.605 340.44 227.188 340.005 226.921C339.571 226.654 339.053 226.558 338.552 226.65L322.971 229.619C322.227 229.77 321.565 230.192 321.114 230.803C320.664 231.414 320.456 232.171 320.532 232.926L327.801 309.795L360.251 301.725Z" fill="#897CEF"/>
<path d="M321.811 232.809C321.811 232.809 319.893 225.459 321.811 224.651C323.73 223.843 335.751 221.547 337.364 223.049C338.978 224.55 340.386 230.811 340.386 230.811L321.811 232.809Z" fill="#5661AE"/>
<path d="M344.49 324.518C353.834 324.518 361.409 316.943 361.409 307.599C361.409 298.255 353.834 290.68 344.49 290.68C335.146 290.68 327.571 298.255 327.571 307.599C327.571 316.943 335.146 324.518 344.49 324.518Z" fill="#897CEF"/>
<path d="M68.8025 225.664C68.8025 225.664 81.1336 249.547 93.7263 253.475C93.7263 253.475 100.804 249.717 99.6753 228.028" stroke="white" stroke-miterlimit="10"/>
<path d="M93.2838 259.63C95.6558 259.63 97.5785 257.708 97.5785 255.336C97.5785 252.964 95.6558 251.041 93.2838 251.041C90.9117 251.041 88.989 252.964 88.989 255.336C88.989 257.708 90.9117 259.63 93.2838 259.63Z" fill="#5661AE"/>
<path d="M87.5048 251.509C88.3249 251.509 88.9892 250.844 88.9892 250.025C88.9892 249.205 88.3249 248.54 87.5048 248.54C86.6853 248.54 86.021 249.205 86.021 250.025C86.021 250.844 86.6853 251.509 87.5048 251.509Z" fill="#5661AE"/>
<path d="M97.5786 250.59C98.3981 250.59 99.063 249.925 99.063 249.106C99.063 248.286 98.3981 247.622 97.5786 247.622C96.7586 247.622 96.0942 248.286 96.0942 249.106C96.0942 249.925 96.7586 250.59 97.5786 250.59Z" fill="#5661AE"/>
<path d="M216.847 324.22L168.448 324.493V370.994L240.484 366.796L216.847 324.22Z" fill="white"/>
<path d="M212.266 328.751L220.269 345.192" stroke="#1C85E8" stroke-width="3.81627" stroke-miterlimit="10" stroke-linecap="round"/>
<path opacity="0.4" d="M204.466 328.752L207.465 334.913" stroke="#1C85E8" stroke-width="3.81627" stroke-miterlimit="10" stroke-linecap="round"/>
<path opacity="0.4" d="M171.712 328.752L195.65 328.196L197.409 334.052L172.191 334.913L171.712 328.752Z" fill="#1C85E8"/>
<path opacity="0.4" d="M172.384 338.279L186.438 337.9L188.197 343.755L172.863 344.44L172.384 338.279Z" fill="#1C85E8"/>
<path opacity="0.4" d="M172.384 348.652L196.321 348.096L198.081 353.951L172.863 354.813L172.384 348.652Z" fill="#1C85E8"/>
<path opacity="0.4" d="M173.055 358.179L187.109 357.8L188.869 363.655L173.534 364.34L173.055 358.179Z" fill="#1C85E8"/>
<path d="M131.861 402.764L185.232 369.344L223.072 380.106L177.467 420.19L131.861 402.764Z" fill="#1C85E8"/>
<path d="M426.56 229.841C426.56 229.841 444.44 223.847 447.801 215.924C447.801 215.924 455.964 217.098 459.168 220.167C462.356 223.236 470.137 224.149 463.394 227.561C456.651 230.974 430.356 233.864 428.757 233.418C427.158 232.972 426.56 229.841 426.56 229.841Z" fill="white"/>
<path d="M419.151 218.931V222.941C419.151 222.941 420.751 228.701 426.56 229.841C426.56 229.841 427.467 233.02 424.269 233.398C421.076 233.775 411.785 229.079 410.418 228.619C409.045 228.166 408.441 226.271 411.103 224.754C411.103 224.754 412.057 219.556 419.151 218.931Z" fill="white"/>
<path d="M435.437 275.142C435.411 275.143 435.384 275.141 435.363 275.136C435.274 275.115 435.196 275.061 435.149 274.985C435.101 274.908 435.08 274.814 435.101 274.723C436.077 270.466 433.35 265.208 430.718 260.12C428.762 256.344 426.738 252.437 426.224 248.915C425.013 240.737 428.322 231.55 428.358 231.461C428.39 231.376 428.453 231.307 428.537 231.269C428.621 231.23 428.71 231.225 428.799 231.255C428.841 231.271 428.878 231.294 428.914 231.325C428.946 231.355 428.972 231.391 428.993 231.432C429.014 231.473 429.024 231.517 429.024 231.563C429.024 231.608 429.019 231.653 429.003 231.695C428.972 231.784 425.716 240.813 426.896 248.819C427.404 252.224 429.397 256.076 431.331 259.804C434.016 265.001 436.805 270.377 435.772 274.881C435.757 274.957 435.715 275.023 435.652 275.071C435.589 275.118 435.516 275.143 435.437 275.142Z" fill="white"/>
<path d="M422.743 271.242C422.665 271.244 422.591 271.218 422.528 271.171C422.471 271.123 422.429 271.056 422.413 270.981C420.263 261.967 422.565 246.512 423.32 241.987C423.949 238.567 424.169 235.084 423.981 231.612C423.97 231.523 424.002 231.433 424.059 231.364C424.117 231.295 424.196 231.251 424.29 231.242C424.379 231.233 424.468 231.259 424.537 231.316C424.61 231.372 424.652 231.454 424.662 231.544C424.862 235.076 424.636 238.617 423.996 242.097C423.241 246.594 420.955 261.933 423.079 270.824C423.089 270.874 423.095 270.927 423.079 270.978C423.068 271.03 423.047 271.077 423.016 271.119C422.984 271.158 422.943 271.189 422.895 271.21C422.843 271.231 422.796 271.242 422.743 271.242Z" fill="white"/>
<g opacity="0.6">
<path opacity="0.6" d="M435.075 277.606C436.271 277.606 437.241 276.638 437.241 275.444C437.241 274.251 436.271 273.283 435.075 273.283C433.875 273.283 432.905 274.251 432.905 275.444C432.905 276.638 433.875 277.606 435.075 277.606Z" fill="white"/>
</g>
<g opacity="0.6">
<path opacity="0.6" d="M423.131 273.067C424.332 273.067 425.302 272.1 425.302 270.906C425.302 269.713 424.332 268.745 423.131 268.745C421.936 268.745 420.966 269.713 420.966 270.906C420.966 272.1 421.936 273.067 423.131 273.067Z" fill="white"/>
</g>
<path d="M292.936 85.5372H296.082" stroke="#5CA4E6" stroke-miterlimit="10"/>
<path d="M350.521 69.0771H169.29C163.995 69.0771 159.701 73.3703 159.701 78.6654V195.456C159.701 200.752 163.995 205.044 169.29 205.044H350.521C355.816 205.044 360.109 200.752 360.109 195.456V78.6654C360.109 73.3703 355.816 69.0771 350.521 69.0771Z" fill="url(#paint1_linear_59_267)"/>
<path d="M344.18 170.611H243.501C241.835 170.611 240.484 171.962 240.484 173.628V187.243C240.484 188.91 241.835 190.26 243.501 190.26H344.18C345.847 190.26 347.197 188.91 347.197 187.243V173.628C347.197 171.962 345.847 170.611 344.18 170.611Z" fill="white"/>
<path d="M226.378 83.4777H173.616C171.638 83.4777 170.034 85.0816 170.034 87.0604V186.678C170.034 188.656 171.638 190.26 173.616 190.26H226.378C228.356 190.26 229.96 188.656 229.96 186.678V87.0604C229.96 85.0816 228.356 83.4777 226.378 83.4777Z" fill="#5661AE"/>
<path opacity="0.4" d="M199.997 154.394C208.343 154.394 215.109 147.628 215.109 139.282C215.109 130.936 208.343 124.17 199.997 124.17C191.651 124.17 184.885 130.936 184.885 139.282C184.885 147.628 191.651 154.394 199.997 154.394Z" fill="white"/>
<path d="M195.323 135.122V144.713C195.323 144.978 195.392 145.24 195.523 145.471C195.655 145.702 195.844 145.895 196.073 146.03C196.301 146.166 196.561 146.24 196.827 146.245C197.094 146.249 197.356 146.184 197.589 146.057L206.357 141.261C206.598 141.129 206.799 140.935 206.939 140.698C207.079 140.462 207.153 140.192 207.153 139.917C207.153 139.642 207.079 139.372 206.939 139.136C206.799 138.899 206.598 138.705 206.357 138.573L197.589 133.777C197.356 133.65 197.094 133.585 196.827 133.59C196.561 133.594 196.301 133.668 196.073 133.804C195.844 133.939 195.655 134.132 195.523 134.363C195.392 134.594 195.323 134.855 195.323 135.122Z" fill="white"/>
<path d="M243.191 96.3032H280.882" stroke="white" stroke-width="16.3488" stroke-miterlimit="10" stroke-linecap="round"/>
<path opacity="0.4" d="M243.191 113.894H321.084" stroke="white" stroke-width="16.3488" stroke-miterlimit="10" stroke-linecap="round"/>
<path d="M243.655 137.209H281.347" stroke="white" stroke-width="16.3488" stroke-miterlimit="10" stroke-linecap="round"/>
<path opacity="0.4" d="M243.655 154.799H321.549" stroke="white" stroke-width="16.3488" stroke-miterlimit="10" stroke-linecap="round"/>
<path d="M128.241 0H61.7646C56.6965 0 52.5884 4.1081 52.5884 9.17623V100.856C52.5884 105.923 56.6965 110.032 61.7646 110.032H128.241C133.309 110.032 137.418 105.923 137.418 100.856V9.17623C137.418 4.1081 133.309 0 128.241 0Z" fill="#789EFF"/>
<path d="M95.0023 95.2176C109.241 95.2176 120.784 83.6751 120.784 69.4365C120.784 55.1974 109.241 43.6549 95.0023 43.6549C80.7637 43.6549 69.2207 55.1974 69.2207 69.4365C69.2207 83.6751 80.7637 95.2176 95.0023 95.2176Z" stroke="white" stroke-width="15" stroke-miterlimit="10" stroke-linecap="round"/>
<path d="M120.784 69.436C120.776 76.2685 118.055 82.8173 113.221 87.6453C108.387 92.4733 101.834 95.1851 95.0023 95.1851C88.1704 95.1851 81.6179 92.4733 76.7836 87.6453C71.9498 82.8173 69.2296 76.2685 69.2207 69.436" stroke="#96BAFD" stroke-width="15" stroke-linecap="round" stroke-linejoin="round"/>
<path d="M95.0027 43.6549C98.3888 43.6549 101.741 44.3213 104.869 45.6169C107.997 46.913 110.839 48.8116 113.233 51.2057C115.627 53.5998 117.526 56.4421 118.822 59.5703C120.117 62.6979 120.784 66.0504 120.784 69.4365" stroke="#C6E0F9" stroke-width="15" stroke-linecap="round" stroke-linejoin="round"/>
<path d="M64.8689 17.0081H82.0049" stroke="white" stroke-width="7.4328" stroke-miterlimit="10" stroke-linecap="round"/>
<path opacity="0.4" d="M64.8689 25.0051H100.282" stroke="white" stroke-width="7.4328" stroke-miterlimit="10" stroke-linecap="round"/>
<path d="M454.544 432.262H75.6824V441.783H454.544V432.262Z" fill="#1C85E8"/>
<path d="M78.6489 191.692C79.5176 191.692 80.2219 190.988 80.2219 190.119C80.2219 189.251 79.5176 188.546 78.6489 188.546C77.7802 188.546 77.0759 189.251 77.0759 190.119C77.0759 190.988 77.7802 191.692 78.6489 191.692Z" fill="#5661AE"/>
<defs>
<linearGradient id="paint0_linear_59_267" x1="219.431" y1="62.9703" x2="258.468" y2="620.837" gradientUnits="userSpaceOnUse">
<stop stop-color="#EBEEFF"/>
<stop offset="1" stop-color="#C3CDFF"/>
</linearGradient>
<linearGradient id="paint1_linear_59_267" x1="236.704" y1="25.8156" x2="267.768" y2="359.639" gradientUnits="userSpaceOnUse">
<stop stop-color="white" stop-opacity="0.15"/>
<stop offset="1" stop-color="#897CEF"/>
</linearGradient>
</defs>
</svg>
