<svg width="501" height="443" viewBox="0 0 501 443" fill="none" xmlns="http://www.w3.org/2000/svg">
<g filter="url(#filter0_d_51_18)">
<path d="M101.352 0H395.878C400.334 0 404.604 1.76978 407.755 4.92003C410.901 8.07028 412.67 12.3428 412.67 16.7981V35.3449H84.5602V16.7981C84.5602 12.3428 86.3297 8.07028 89.4784 4.92003C92.6275 1.76978 96.8988 0 101.352 0Z" fill="#5E48E8"/>
<path d="M84.5602 35.3449H412.67V332.872C412.67 336.905 411.878 340.898 410.334 344.624C408.791 348.35 406.534 351.735 403.68 354.586C400.832 357.438 397.447 359.7 393.724 361.243C389.996 362.786 386.005 363.581 381.974 363.581H115.257C111.226 363.581 107.234 362.786 103.51 361.243C99.7856 359.7 96.4015 357.438 93.5513 354.586C90.7007 351.735 88.4397 348.35 86.8969 344.624C85.3546 340.898 84.5602 336.905 84.5602 332.872V35.3449Z" fill="url(#paint0_linear_51_18)"/>
<path d="M298.94 246.398H208.944V290.121H298.94V246.398Z" fill="#FFCCB3"/>
<path d="M208.414 273.354C197.859 283.743 193.707 334.906 194.263 363.581H319.901C319.901 363.581 319.675 301.049 310.15 279.977C301.391 260.599 286.83 289.185 208.414 273.354Z" fill="#1F2D49"/>
<path d="M283.818 47.4135C283.818 47.4135 294.242 35.5183 314.477 33.7878C334.712 32.0572 340.766 49.7868 339.902 60.6796C339.036 71.5723 323.179 94.07 326.35 103.588C329.522 113.106 314.608 108.492 312.983 89.4549C311.358 70.4185 305.303 43.8829 288.868 53.4009L283.818 47.4135Z" fill="#080B09"/>
<path d="M286.982 41.8454C286.982 41.8454 289.475 40.4003 291.28 43.7715C293.086 47.1428 296.458 53.9884 292.184 55.803C287.91 57.6182 286.982 41.8454 286.982 41.8454Z" fill="#1C85E8"/>
<path d="M229.181 151.477C229.181 151.477 245.345 169.627 239.969 175.449C229.322 187.414 201.003 209.902 191.724 217.345C191.323 217.652 190.866 217.877 190.378 218.006C189.89 218.135 189.382 218.166 188.882 218.098C188.382 218.03 187.9 217.863 187.466 217.607C187.03 217.352 186.65 217.013 186.346 216.61L164.404 187.751C163.546 186.64 163.146 185.242 163.286 183.845C163.426 182.448 164.096 181.158 165.157 180.239L207.659 143.575L229.181 151.477Z" fill="#5E48E8"/>
<path d="M203.662 174.551C203.662 174.551 183.517 186.529 181.702 210.595L185.714 215.751C185.714 215.751 188.233 220.143 191.724 217.345C195.215 214.548 211.363 201.608 211.363 201.608L203.662 174.551Z" fill="#0E66AF"/>
<path d="M222.497 183.675C235.062 183.675 245.249 173.485 245.249 160.914C245.249 148.344 235.062 138.154 222.497 138.154C209.932 138.154 199.745 148.344 199.745 160.914C199.745 173.485 209.932 183.675 222.497 183.675Z" fill="#5E48E8"/>
<path d="M163.251 232.261L143.368 205.924L162.191 191.306L165.141 188.93L185.766 215.912L182.175 218.496L163.251 232.261Z" fill="#FFCCB3"/>
<path d="M182.174 218.496C176.848 211.362 166.832 197.42 162.191 191.306L165.141 188.93L185.714 215.751L182.174 218.496Z" fill="#FF967C"/>
<path d="M153.008 235.914C162.129 235.914 169.524 228.517 169.524 219.392C169.524 210.266 162.129 202.869 153.008 202.869C143.886 202.869 136.491 210.266 136.491 219.392C136.491 228.517 143.886 235.914 153.008 235.914Z" fill="#FFCCB3"/>
<path d="M166.992 210.503C166.992 210.503 113.714 132.23 111.251 125.583C108.854 119.091 96.2697 134.713 96.2697 134.713L137.504 224.712L166.992 210.503Z" fill="#FFCCB3"/>
<path d="M240.341 101.349L233.936 146.02C233.936 146.02 232.255 151.95 239.717 152.847C247.179 153.745 263.09 151.739 268.772 145.681C274.455 139.623 272.467 136.622 272.467 136.622L260.415 88.1353L240.341 101.349Z" fill="#FFCCB3"/>
<path d="M239.45 107.129L255.117 101.593L235.707 130.372L239.45 107.129Z" fill="#FF967C"/>
<path d="M222.615 46.1702C222.615 46.1702 209.174 77.764 216.179 99.4176C220.747 113.539 230.696 116.078 253.481 105.495C274.372 95.7923 279.799 88.452 279.799 88.452L282.879 53.2328C282.879 53.2328 236.265 18.0101 222.615 46.1702Z" fill="#FFCCB3"/>
<path d="M233.823 133.177C233.823 133.177 216.605 137.962 213.111 140.759C209.616 143.555 207.075 166.285 201.91 177.513C194.265 194.135 189.315 202.977 202.159 221.243C209.906 232.261 207.272 260.269 207.272 260.269H301.593C298.735 205.196 311.381 140.274 311.381 140.274L268.812 130.461C259.214 132.117 233.823 133.177 233.823 133.177Z" fill="#5E48E8"/>
<path d="M230.812 134.065C230.812 134.065 232.085 125.408 236.154 124.798C240.223 124.189 265.089 120.447 268.956 122.077C272.824 123.705 277.506 134.065 277.506 134.065C277.506 134.065 269.567 153.436 258.168 154.454C246.769 155.472 227.149 151.957 229.224 144.755C231.298 137.553 230.812 134.065 230.812 134.065Z" fill="#5E48E8"/>
<path d="M223.068 136.697C223.068 136.697 225.819 153.404 240.757 153.141C255.695 152.877 277.402 130.461 277.402 130.461" stroke="white" stroke-width="1.35709" stroke-miterlimit="10"/>
<path d="M290.749 160.914C290.749 160.914 275.905 170.732 280.278 180.638C285.195 191.777 285.152 220.464 271.041 222.262C245.864 225.47 256.803 229.874 268.444 232.689C280.086 235.503 275.32 235.506 275.32 247.57C275.32 256.157 302.294 263.602 301.593 256.664C296.902 210.245 316.399 180.852 290.749 160.914Z" fill="#0E66AF"/>
<path d="M221.417 92.6531L233.921 93.2719C233.876 93.4258 233.808 93.6365 233.71 93.8843C233.497 94.4219 233.145 95.13 232.585 95.8157C231.476 97.1754 229.538 98.4676 226.191 98.1289C224.077 97.7237 222.876 96.302 222.195 94.956C221.855 94.2821 221.648 93.6316 221.527 93.1497C221.477 92.9518 221.441 92.7831 221.417 92.6531Z" fill="#E56441" stroke="#E56441"/>
<path d="M222.242 71.8842C222.765 69.9463 222.123 68.0882 220.808 67.7334C219.494 67.3786 218.005 68.662 217.482 70.5998C216.96 72.5376 217.602 74.3957 218.916 74.7506C220.231 75.1049 221.72 73.822 222.242 71.8842Z" fill="#080B09"/>
<path d="M241.585 77.4019C242.108 75.4641 241.466 73.6059 240.151 73.2511C238.837 72.8968 237.348 74.1797 236.825 76.1175C236.303 78.0553 236.945 79.9135 238.259 80.2683C239.574 80.6231 241.063 79.3397 241.585 77.4019Z" fill="#080B09"/>
<path d="M217.351 61.875L227.184 64.7028C227.355 64.737 227.533 64.7076 227.684 64.6207C227.836 64.5337 227.95 64.3949 228.007 64.2297C228.052 63.9193 228.034 63.6031 227.953 63.3001C227.873 62.9966 227.732 62.7131 227.538 62.4663C227.345 62.219 227.104 62.0138 226.829 61.8628C226.555 61.7117 226.252 61.6174 225.94 61.5866L217.495 60.6976C216.847 60.5227 216.541 61.6565 217.351 61.875Z" fill="#080B09"/>
<path d="M250.968 70.2836L237.634 67.554C237.754 67.1572 237.956 66.7896 238.228 66.4759C238.499 66.1616 238.832 65.908 239.208 65.731C239.582 65.5541 239.99 65.4574 240.405 65.4476C240.82 65.4378 241.232 65.515 241.615 65.6744L251.348 69.5177C251.672 69.6047 251.453 70.415 250.968 70.2836Z" fill="#080B09"/>
<path d="M228.189 72.4384L221.864 80.9589L224.246 84.3277" stroke="#E56441" stroke-width="2.23881" stroke-linecap="round"/>
<path d="M239.951 165.397C241.176 165.397 242.169 162.654 242.169 159.269C242.169 155.884 241.176 153.14 239.951 153.14C238.726 153.14 237.734 155.884 237.734 159.269C237.734 162.654 238.726 165.397 239.951 165.397Z" fill="white"/>
<path d="M342.159 249.719L309.278 252.415L303.665 228.576L296.903 210.245L331.507 206.102L335.833 226.618L342.159 249.719Z" fill="#FFCCB3"/>
<path d="M332.675 211.642L333.888 217.395L299.811 218.128L297.569 212.051L332.675 211.642Z" fill="#FF967C"/>
<path d="M305.724 185.08C318.289 185.08 328.475 174.89 328.475 162.319C328.475 149.749 318.289 139.559 305.724 139.559C293.158 139.559 282.972 149.749 282.972 162.319C282.972 174.89 293.158 185.08 305.724 185.08Z" fill="#5E48E8"/>
<path d="M301.335 151.619C301.335 151.619 325.314 147.682 327.35 155.341C331.749 170.744 337.156 195.471 338.472 207.297C338.516 207.8 338.46 208.306 338.308 208.788C338.156 209.269 337.91 209.715 337.585 210.101C337.259 210.487 336.861 210.804 336.412 211.035C335.964 211.266 335.474 211.405 334.971 211.446L298.858 214.53C297.46 214.659 296.067 214.249 294.962 213.383C293.857 212.516 293.126 211.26 292.919 209.871L283.139 165.57L301.335 151.619Z" fill="#5E48E8"/>
<path d="M230.995 43.1669C230.995 43.1669 231.846 58.513 244.841 65.9495C244.841 65.9495 248.641 77.7196 262.824 80.4877C262.824 80.4877 261.986 69.6697 268.746 69.7841C280.225 69.9786 274.579 87.3974 266.819 90.255C261.544 92.1972 258.368 99.0902 266.197 114.799C284.174 108.385 296.816 82.4808 291.859 53.7411C287.89 30.7259 259.369 23.2102 253.509 23.9599C253.509 23.9599 229.172 15.5494 216.358 38.6159C205.404 58.3341 215.634 70.1022 215.634 70.1022L221.473 52.553C221.473 52.553 223.911 54.266 230.995 43.1669Z" fill="#080B09"/>
<path d="M342.28 306.587H255.19C253.505 306.587 251.879 305.971 250.615 304.857C249.353 303.741 248.54 302.203 248.331 300.531L240.292 236.352C240.17 235.378 240.256 234.39 240.546 233.453C240.834 232.516 241.319 231.651 241.968 230.915C242.617 230.18 243.414 229.591 244.308 229.188C245.202 228.785 246.171 228.576 247.151 228.576H350.319C351.299 228.576 352.268 228.785 353.162 229.188C354.056 229.591 354.853 230.18 355.502 230.915C356.151 231.651 356.636 232.516 356.924 233.453C357.214 234.39 357.3 235.378 357.178 236.352L349.139 300.531C348.93 302.203 348.117 303.741 346.855 304.857C345.591 305.971 343.965 306.587 342.28 306.587Z" fill="url(#paint1_linear_51_18)"/>
<path d="M298.94 272.5C302.316 272.5 305.053 269.762 305.053 266.385C305.053 263.007 302.316 260.269 298.94 260.269C295.564 260.269 292.827 263.007 292.827 266.385C292.827 269.762 295.564 272.5 298.94 272.5Z" fill="white"/>
<path d="M98.534 139.855L93.286 129.782C93.286 129.782 74.7292 119.163 72.5786 115.324C70.4276 111.484 69.5824 100.522 73.3896 97.7154C73.3896 97.7154 58.5843 86.591 61.1047 84.3369C63.6168 81.9197 92.7051 103.537 92.7051 103.537C92.7051 103.537 89.1637 87.6109 94.5455 86.8646C96.0033 93.0373 98.5007 98.9167 101.931 104.251C107.597 113.015 108.295 120.864 108.295 120.864L114.973 133.685L98.534 139.855Z" fill="#FFCCB3"/>
<path d="M74.3878 97.9969L83.354 103.65" stroke="#FF967C" stroke-width="2.87188" stroke-linecap="round" stroke-linejoin="round"/>
<path d="M73.0511 104.464L80.6607 109.196" stroke="#FF967C" stroke-width="2.87188" stroke-linecap="round" stroke-linejoin="round"/>
<path d="M74.5299 111.455L79.6054 114.664" stroke="#FF967C" stroke-width="2.87188" stroke-linecap="round" stroke-linejoin="round"/>
<path d="M109.462 21.9473C111.822 21.9473 113.735 20.0335 113.735 17.6724C113.735 15.3114 111.822 13.3975 109.462 13.3975C107.102 13.3975 105.188 15.3114 105.188 17.6724C105.188 20.0335 107.102 21.9473 109.462 21.9473Z" fill="white"/>
<path d="M126.721 21.9473C129.081 21.9473 130.994 20.0335 130.994 17.6724C130.994 15.3114 129.081 13.3975 126.721 13.3975C124.361 13.3975 122.448 15.3114 122.448 17.6724C122.448 20.0335 124.361 21.9473 126.721 21.9473Z" fill="white"/>
<path d="M142.938 21.9473C145.298 21.9473 147.211 20.0335 147.211 17.6724C147.211 15.3114 145.298 13.3975 142.938 13.3975C140.577 13.3975 138.664 15.3114 138.664 17.6724C138.664 20.0335 140.577 21.9473 142.938 21.9473Z" fill="white"/>
<path opacity="0.7" d="M14.574 17.1485C31.7546 31.8065 77.0635 65.2277 134.608 66.8243C135.785 66.8595 136.901 67.3527 137.721 68.1986C138.54 69.0441 138.997 70.1765 138.996 71.3544V162.567C138.996 163.731 138.55 164.85 137.748 165.693C136.946 166.536 135.851 167.039 134.689 167.096C117.388 167.957 51.7799 167.857 8.30743 121.297C7.53211 120.46 7.10317 119.361 7.10659 118.221V20.6028C7.1061 19.7373 7.3533 18.8894 7.81937 18.1597C8.28544 17.4305 8.95035 16.8494 9.73593 16.4863C10.521 16.1227 11.3945 15.9917 12.2519 16.1095C13.1093 16.2268 13.9149 16.587 14.574 17.1485Z" fill="#5E48E8"/>
<path d="M21.0912 44.0276C21.0912 44.0276 34.6487 57.2062 53.1802 65.3924" stroke="white" stroke-width="7.4328" stroke-miterlimit="10" stroke-linecap="round"/>
<path opacity="0.4" d="M21.0912 60.0046C21.0912 60.0046 39.9597 77.6111 64.5046 84.1483" stroke="white" stroke-width="7.4328" stroke-miterlimit="10" stroke-linecap="round"/>
<path d="M18.2805 118.426V80.3274L31.6329 89.886V128.906L18.2805 118.426Z" fill="white"/>
<path d="M40.8175 133.821V106.676L54.1699 114.664V141.499L40.8175 133.821Z" fill="white"/>
<path d="M97.9126 155.072V127.926L84.5602 126.098V152.932L97.9126 155.072Z" fill="white"/>
<path d="M119.845 156.234V108.707H106.492V155.923L119.845 156.234Z" fill="white"/>
<path d="M62.6891 145.715V133.304L76.0415 137.06V150.552L62.6891 145.715Z" fill="white"/>
<g opacity="0.7">
<path opacity="0.7" d="M48.0152 206.153C65.1958 218.772 110.505 251.706 168.049 246.476C168.609 246.41 169.176 246.465 169.713 246.638C170.249 246.811 170.742 247.098 171.158 247.478C171.575 247.858 171.904 248.323 172.125 248.843C172.345 249.362 172.452 249.922 172.437 250.485V341.698C172.408 342.906 171.963 344.066 171.179 344.984C170.395 345.902 169.318 346.521 168.13 346.738C150.829 349.652 78.8706 348.213 41.7482 311.044C41.3642 310.659 41.0603 310.201 40.8542 309.698C40.648 309.194 40.5439 308.655 40.5478 308.111V210.493C40.5478 206.627 45.0747 203.992 48.0152 206.153Z" fill="#96BAFD"/>
</g>
<path d="M324.547 303.968C324.547 303.968 329.15 304.35 328.457 306.674C327.763 308.998 323.654 307.925 319.901 310.249C316.149 312.573 301.314 314.231 293.904 312.995C286.494 311.76 284.436 303.968 284.436 303.968C284.436 303.968 283.197 296.576 296.286 295.817C309.375 295.058 315.466 299.259 317.743 303.814L324.547 303.968Z" fill="#FFCCB3"/>
<path d="M290 296.966L292.827 304.572" stroke="#E56441" stroke-width="2.23881" stroke-linecap="round"/>
<path d="M297.322 295.727L300.149 303.333" stroke="#E56441" stroke-width="2.23881" stroke-linecap="round"/>
<path d="M305.053 296.371L307.88 303.977" stroke="#E56441" stroke-width="2.23881" stroke-linecap="round"/>
<path opacity="0.7" d="M463.84 213.573C439.877 234.019 376.676 280.639 296.407 282.866C294.766 282.915 293.208 283.603 292.065 284.783C290.922 285.963 290.284 287.542 290.287 289.185V416.418C290.286 418.041 290.909 419.602 292.027 420.778C293.146 421.954 294.673 422.655 296.293 422.735C320.427 423.936 411.942 423.797 472.585 358.849C473.664 357.683 474.265 356.149 474.26 354.558V218.392C474.26 217.184 473.913 216.002 473.264 214.984C472.614 213.966 471.686 213.156 470.591 212.649C469.497 212.142 468.276 211.96 467.084 212.124C465.887 212.288 464.763 212.79 463.84 213.573Z" fill="#5E48E8"/>
<path d="M454.753 251.067C454.753 251.067 435.841 269.45 409.992 280.869" stroke="white" stroke-width="10.368" stroke-miterlimit="10" stroke-linecap="round"/>
<path opacity="0.4" d="M454.753 273.354C454.753 273.354 428.43 297.912 394.193 307.031" stroke="white" stroke-width="10.368" stroke-miterlimit="10" stroke-linecap="round"/>
<path d="M442.461 173.322H369.306C367.87 173.322 366.449 173.605 365.123 174.154C363.797 174.703 362.593 175.509 361.577 176.524C360.563 177.539 359.758 178.745 359.208 180.071C358.659 181.397 358.376 182.819 358.376 184.255V206.896C358.376 208.332 358.659 209.754 359.208 211.08C359.758 212.407 360.563 213.613 361.577 214.628C362.593 215.643 363.797 216.449 365.123 216.998C366.449 217.547 367.871 217.83 369.306 217.83H395.278L402.938 225.496C403.656 226.214 404.628 226.618 405.644 226.618C406.661 226.618 407.633 226.214 408.351 225.496L416.011 217.83H442.461C445.358 217.83 448.143 216.678 450.19 214.628C452.242 212.577 453.39 209.796 453.39 206.896V184.255C453.39 181.355 452.242 178.575 450.19 176.524C448.143 174.474 445.358 173.322 442.461 173.322Z" fill="white"/>
<path d="M389.41 188.394C388.433 187.491 387.153 186.99 385.824 186.99C384.495 186.99 383.215 187.491 382.238 188.394L380.888 189.642L379.537 188.394C378.561 187.491 377.28 186.99 375.951 186.99C374.621 186.99 373.341 187.491 372.364 188.394C371.849 188.861 371.437 189.431 371.155 190.067C370.873 190.702 370.727 191.39 370.727 192.085C370.727 192.781 370.873 193.469 371.155 194.105C371.437 194.741 371.849 195.31 372.364 195.777L380.888 203.68L389.41 195.881C389.948 195.417 390.382 194.842 390.675 194.197C390.973 193.551 391.125 192.848 391.125 192.138C391.125 191.427 390.973 190.725 390.675 190.079C390.382 189.433 389.948 188.858 389.41 188.394Z" fill="#F4608A"/>
<path d="M398.927 193.012C399 192.055 399.371 191.305 400.036 190.763C400.7 190.222 401.565 189.952 402.625 189.952C403.334 189.952 403.944 190.082 404.452 190.342C404.975 190.592 405.366 190.935 405.625 191.372C405.894 191.81 406.03 192.304 406.03 192.856C406.03 193.501 405.845 194.058 405.468 194.527C405.102 194.995 404.623 195.297 404.032 195.433V195.51C404.706 195.677 405.244 196.005 405.639 196.494C406.035 196.984 406.235 197.624 406.235 198.415C406.235 199.008 406.099 199.544 405.825 200.023C405.556 200.492 405.151 200.862 404.609 201.132C404.066 201.403 403.417 201.538 402.659 201.538C401.555 201.538 400.651 201.252 399.943 200.679C399.235 200.096 398.839 199.274 398.756 198.212H400.129C400.202 198.837 400.456 199.347 400.896 199.742C401.33 200.138 401.917 200.336 402.645 200.336C403.373 200.336 403.925 200.149 404.296 199.774C404.682 199.389 404.877 198.894 404.877 198.29C404.877 197.509 404.614 196.947 404.096 196.604C403.573 196.26 402.786 196.089 401.736 196.089H401.379V194.902H401.756C402.708 194.891 403.436 194.735 403.925 194.433C404.413 194.121 404.657 193.642 404.657 192.996C404.657 192.445 404.477 192.002 404.11 191.669C403.759 191.336 403.246 191.17 402.581 191.17C401.936 191.17 401.414 191.336 401.018 191.669C400.622 192.002 400.388 192.45 400.319 193.012H398.927ZM409.851 199.493L408.107 203.693H407.154L408.292 199.493H409.851ZM418.439 191.404H412.963V194.964C413.202 194.631 413.554 194.361 414.023 194.152C414.492 193.933 414.995 193.824 415.537 193.824C416.402 193.824 417.106 194.006 417.643 194.371C418.185 194.725 418.571 195.188 418.801 195.761C419.04 196.323 419.157 196.921 419.157 197.556C419.157 198.306 419.021 198.977 418.737 199.571C418.459 200.164 418.024 200.632 417.443 200.976C416.871 201.319 416.158 201.492 415.303 201.492C414.213 201.492 413.329 201.21 412.65 200.648C411.976 200.086 411.561 199.336 411.419 198.399H412.806C412.943 198.993 413.227 199.456 413.666 199.789C414.101 200.123 414.653 200.289 415.317 200.289C416.143 200.289 416.759 200.044 417.179 199.555C417.594 199.055 417.799 198.399 417.799 197.588C417.799 196.775 417.594 196.151 417.179 195.714C416.759 195.266 416.148 195.042 415.337 195.042C414.785 195.042 414.301 195.178 413.881 195.448C413.476 195.708 413.183 196.068 412.992 196.526H411.653V190.155H418.439V191.404ZM420.877 200.32C422.196 199.259 423.232 198.389 423.979 197.712C424.732 197.026 425.362 196.312 425.87 195.573C426.393 194.823 426.652 194.09 426.652 193.371C426.652 192.695 426.486 192.164 426.153 191.779C425.831 191.383 425.303 191.185 424.575 191.185C423.867 191.185 423.315 191.409 422.919 191.857C422.533 192.294 422.328 192.882 422.294 193.621H420.921C420.965 192.455 421.317 191.555 421.981 190.92C422.651 190.285 423.51 189.967 424.561 189.967C425.631 189.967 426.481 190.264 427.101 190.857C427.736 191.451 428.054 192.268 428.054 193.309C428.054 194.173 427.795 195.016 427.277 195.838C426.764 196.651 426.183 197.369 425.528 197.994C424.873 198.608 424.033 199.326 423.012 200.148H428.381V201.335H420.877V200.32ZM436.97 191.279L432.631 201.46H431.195L435.597 191.419H429.573V190.201H436.97V191.279Z" fill="#1C85E8"/>
<path opacity="0.7" d="M13.2403 381.717H68.3953C69.4774 381.717 70.5488 381.503 71.5489 381.089C72.5484 380.675 73.4571 380.068 74.2222 379.302C74.9872 378.537 75.594 377.628 76.0083 376.628C76.4225 375.628 76.6356 374.556 76.6356 373.474V356.403C76.6356 355.321 76.4225 354.249 76.0083 353.249C75.594 352.249 74.9872 351.34 74.2222 350.574C73.4571 349.809 72.5484 349.202 71.5489 348.788C70.5488 348.373 69.4774 348.16 68.3953 348.16H48.816L43.038 342.38C42.4971 341.839 41.7634 341.535 40.9983 341.535C40.2337 341.535 39.4999 341.839 38.9591 342.38L33.1811 348.16H13.2403C11.0545 348.16 8.95867 349.028 7.4134 350.574C5.86814 352.12 5 354.217 5 356.403V373.474C5 375.66 5.86814 377.756 7.4134 379.302C8.95867 380.848 11.0545 381.717 13.2403 381.717Z" fill="#5E48E8"/>
<path d="M39.2234 369.134C40.22 368.334 41.0002 367.678 41.5655 367.168C42.1302 366.65 42.6051 366.112 42.9896 365.555C43.3819 364.99 43.5778 364.437 43.5778 363.895C43.5778 363.385 43.4522 362.985 43.2011 362.694C42.9578 362.396 42.5616 362.247 42.0125 362.247C41.479 362.247 41.0632 362.416 40.7652 362.753C40.475 363.083 40.3177 363.526 40.2943 364.083H39.2586C39.2903 363.204 39.5571 362.526 40.0588 362.047C40.561 361.568 41.2083 361.329 42.0008 361.329C42.8088 361.329 43.4483 361.552 43.9193 362C44.3975 362.447 44.6369 363.063 44.6369 363.848C44.6369 364.5 44.441 365.135 44.0487 365.755C43.6642 366.368 43.2245 366.909 42.7306 367.38C42.2362 367.843 41.6045 368.385 40.8356 369.005H44.8841V369.899H39.2234V369.134ZM45.8632 368.098V367.286L49.9938 361.564H51.2767V367.168H52.4536V368.098H51.2767V369.993H50.2176V368.098H45.8632ZM50.2645 362.683L47.0987 367.168H50.2645V362.683ZM53.5001 363.624C53.5548 362.902 53.8333 362.337 54.3355 361.929C54.8377 361.521 55.4889 361.317 56.2892 361.317C56.8227 361.317 57.2814 361.415 57.6659 361.611C58.0582 361.799 58.3523 362.058 58.5487 362.388C58.7524 362.718 58.8545 363.091 58.8545 363.507C58.8545 363.993 58.7133 364.413 58.4309 364.766C58.1564 365.119 57.7954 365.347 57.3483 365.449V365.508C57.8584 365.633 58.2624 365.881 58.5604 366.25C58.8584 366.619 59.0074 367.101 59.0074 367.698C59.0074 368.145 58.9053 368.549 58.7016 368.91C58.4974 369.264 58.1916 369.542 57.7836 369.746C57.3757 369.95 56.8852 370.053 56.3126 370.053C55.4811 370.053 54.7981 369.837 54.2646 369.405C53.7312 368.965 53.4332 368.345 53.3706 367.545H54.4058C54.461 368.016 54.653 368.4 54.9828 368.698C55.3121 368.997 55.7518 369.146 56.3009 369.146C56.85 369.146 57.2658 369.005 57.5481 368.722C57.8383 368.431 57.9839 368.059 57.9839 367.604C57.9839 367.015 57.7875 366.591 57.3952 366.332C57.0029 366.073 56.4108 365.943 55.6184 365.943H55.3478V365.049H55.6301C56.3517 365.041 56.8969 364.923 57.2658 364.696C57.6346 364.46 57.8188 364.099 57.8188 363.613C57.8188 363.197 57.6815 362.863 57.407 362.612C57.1402 362.36 56.7557 362.235 56.2535 362.235C55.7674 362.235 55.3751 362.36 55.0766 362.612C54.7786 362.863 54.6022 363.201 54.547 363.624H53.5001ZM65.1963 363.507C65.0238 362.635 64.4864 362.2 63.5841 362.2C62.8855 362.2 62.3637 362.47 62.0188 363.012C61.6734 363.546 61.5049 364.429 61.5127 365.661C61.6929 365.253 61.9914 364.935 62.4072 364.707C62.8308 364.472 63.3017 364.354 63.8191 364.354C64.6276 364.354 65.2705 364.605 65.7493 365.108C66.2359 365.61 66.4792 366.304 66.4792 367.192C66.4792 367.725 66.3732 368.204 66.1612 368.628C65.9574 369.052 65.6433 369.389 65.2197 369.64C64.804 369.891 64.2979 370.017 63.7018 370.017C62.8933 370.017 62.2621 369.837 61.8068 369.475C61.3519 369.114 61.0339 368.616 60.8536 367.98C60.6734 367.345 60.583 366.56 60.583 365.626C60.583 362.745 61.5874 361.305 63.5958 361.305C64.3648 361.305 64.9686 361.513 65.4083 361.929C65.8475 362.345 66.1064 362.871 66.1846 363.507H65.1963ZM63.5958 365.261C63.2582 365.261 62.9407 365.331 62.6427 365.473C62.3442 365.606 62.1009 365.814 61.9128 366.097C61.7325 366.371 61.6421 366.709 61.6421 367.109C61.6421 367.706 61.8146 368.192 62.16 368.569C62.5054 368.938 62.9993 369.122 63.6427 369.122C64.1918 369.122 64.6276 368.953 64.9491 368.616C65.2788 368.271 65.4435 367.808 65.4435 367.227C65.4435 366.615 65.2867 366.136 64.9725 365.79C64.6589 365.437 64.1997 365.261 63.5958 365.261Z" fill="white"/>
<path d="M306.812 367.513C306.812 367.513 324.402 363.829 332.444 355.293C343.1 343.985 345.558 330.423 357.233 329.028C375.554 326.84 386.176 391.55 408.419 382.795C430.663 374.04 425.406 325.716 438.64 317.525C447.757 311.883 452.496 328.664 465.261 324.286" stroke="white" stroke-width="10.368" stroke-miterlimit="10" stroke-linecap="round"/>
<path opacity="0.7" d="M133.71 314.414C146.859 318.169 177.619 324.88 217.927 320.251C218.574 320.159 219.234 320.209 219.861 320.398C220.487 320.586 221.065 320.909 221.554 321.343C222.043 321.777 222.432 322.313 222.693 322.913C222.955 323.513 223.083 324.162 223.068 324.817V387.048C223.038 388.421 222.525 389.74 221.619 390.772C220.714 391.803 219.473 392.483 218.116 392.689C203.764 394.652 161.151 398.851 129.396 385.135C128.584 384.775 127.896 384.184 127.42 383.433C126.943 382.683 126.7 381.808 126.721 380.919V319.918C126.721 316.309 130.352 313.454 133.71 314.414Z" fill="url(#paint2_linear_51_18)"/>
<path d="M15.7739 371.716H17.5805C17.9161 371.715 18.2376 371.582 18.4745 371.345C18.712 371.108 18.8453 370.786 18.8458 370.45V362.135C18.8453 361.799 18.712 361.478 18.4745 361.24C18.2376 361.003 17.9161 360.87 17.5805 360.869H15.7739C15.4382 360.87 15.1168 361.003 14.8798 361.24C14.6424 361.478 14.509 361.799 14.5085 362.135V370.45C14.509 370.786 14.6424 371.108 14.8798 371.345C15.1168 371.582 15.4382 371.715 15.7739 371.716Z" fill="white"/>
<path d="M23.7469 355.627C23.0244 355.627 22.6628 355.988 22.6628 357.796C22.6628 359.515 20.9998 360.897 19.9299 361.609V370.567C21.0873 371.103 23.4035 371.897 26.9996 371.897H28.156C28.838 371.897 29.4976 371.657 30.0188 371.217C30.5401 370.778 30.8894 370.168 31.0042 369.496L31.8138 364.796C31.8856 364.38 31.866 363.955 31.7556 363.548C31.6457 363.141 31.4483 362.763 31.1772 362.441C30.9055 362.119 30.567 361.859 30.1854 361.682C29.8034 361.504 29.3872 361.412 28.966 361.412H25.554C25.938 360.497 26.1232 359.511 26.0963 358.52C26.0963 356.35 24.47 355.627 23.7469 355.627V355.627Z" fill="white"/>
<path d="M75.976 298.44C66.3888 295.059 58.6171 284.542 58.6171 274.951C58.6171 265.36 66.3888 260.327 75.976 263.709V252.562C60.4877 247.098 47.9321 255.23 47.9321 270.724C47.9321 286.219 60.4877 303.208 75.976 308.671C90.8101 313.904 102.946 306.661 103.946 292.427L93.2675 288.661C92.5127 297.289 85.0619 301.645 75.976 298.44Z" fill="white"/>
<path d="M79.537 250.256V261.402C89.1242 264.784 96.8959 275.301 96.8959 284.892C96.8959 285.393 96.87 285.879 96.8285 286.355L107.506 290.121C107.55 289.493 107.581 288.857 107.581 288.202C107.581 272.708 95.0248 255.719 79.537 250.256Z" fill="#1C85E8"/>
<path d="M75.9761 298.44V308.671" stroke="white" stroke-width="2.42819" stroke-miterlimit="10"/>
<path d="M58.6171 274.951L47.9321 271.182" stroke="white" stroke-width="2.42819" stroke-miterlimit="10"/>
<path d="M120.949 276.545L140.776 280.314" stroke="white" stroke-width="10.368" stroke-miterlimit="10" stroke-linecap="round"/>
<path opacity="0.4" d="M120.949 307.622L140.776 311.391" stroke="white" stroke-width="10.368" stroke-miterlimit="10" stroke-linecap="round"/>
<path d="M120.949 292.4L149.434 297.815" stroke="white" stroke-width="10.368" stroke-miterlimit="10" stroke-linecap="round"/>
<g opacity="0.7">
<path opacity="0.7" d="M478.53 9.93507C461.348 22.5548 429.92 54.3779 361.327 64.951C356.075 65.7604 354.109 69.4982 354.109 73.6284V160.632C354.138 161.839 354.582 162.999 355.367 163.917C356.151 164.835 357.228 165.455 358.415 165.671C375.717 168.585 442.349 151.582 482.194 117.349C486 114.079 486 108.594 486 107.454V14.2758C486 10.4099 481.471 7.77523 478.53 9.93507Z" fill="url(#paint3_linear_51_18)"/>
</g>
<path d="M363.178 80.455V134.268C363.178 134.737 363.283 135.199 363.485 135.622C363.687 136.044 363.982 136.415 364.347 136.709C364.713 137.001 365.139 137.209 365.595 137.315C366.051 137.42 366.525 137.422 366.983 137.32C376.781 135.125 403.285 128.778 420.022 120.878C420.56 120.625 421.009 120.225 421.327 119.724C421.639 119.224 421.81 118.644 421.805 118.052V65.6465C421.81 65.1226 421.678 64.607 421.424 64.1466C421.175 63.6867 420.814 63.2977 420.369 63.0147C419.929 62.7317 419.426 62.5641 418.903 62.5274C418.381 62.4908 417.858 62.5861 417.379 62.805C408.053 67.1024 385.639 76.4899 366.143 77.3344C365.342 77.3726 364.587 77.7186 364.035 78.2997C363.483 78.8808 363.176 79.653 363.178 80.455Z" fill="white"/>
<path d="M365.601 125.606V131.266C365.601 131.695 365.7 132.117 365.89 132.502C366.08 132.886 366.355 133.221 366.696 133.481C367.036 133.741 367.433 133.919 367.853 134.001C368.273 134.083 368.707 134.067 369.12 133.954L398.438 125.935C398.903 125.809 399.323 125.566 399.665 125.228C400.007 124.891 400.251 124.472 400.383 124.011C400.515 123.55 400.525 123.063 400.412 122.598C400.3 122.131 400.07 121.702 399.748 121.351L384.026 104.433C383.743 104.129 383.401 103.892 383.015 103.74C382.629 103.587 382.214 103.522 381.801 103.55C381.387 103.578 380.985 103.697 380.624 103.9C380.263 104.104 379.951 104.385 379.712 104.723L366.111 123.999C365.779 124.469 365.601 125.03 365.601 125.606Z" fill="#1C85E8"/>
<path opacity="0.6" d="M395.492 112.331L404.291 121.67C404.574 121.971 404.941 122.18 405.341 122.271C405.742 122.362 406.162 122.33 406.548 122.18C409.147 121.164 414.985 118.868 417.941 117.596C418.312 117.436 418.625 117.171 418.85 116.834C419.07 116.496 419.187 116.1 419.187 115.696V106.945C419.187 106.498 419.04 106.064 418.776 105.707L406.406 89.1299C406.182 88.8323 405.884 88.5996 405.542 88.4569C405.2 88.3142 404.824 88.2663 404.457 88.3181C404.091 88.3704 403.744 88.52 403.451 88.7521C403.163 88.9843 402.943 89.2897 402.811 89.6372L395.063 110.18C394.926 110.543 394.891 110.937 394.97 111.317C395.043 111.697 395.229 112.048 395.492 112.331Z" fill="#1C85E8"/>
<path d="M387.769 97.7477C390.377 97.7477 392.493 95.6324 392.493 93.0226C392.493 90.4128 390.377 88.2976 387.769 88.2976C385.16 88.2976 383.044 90.4128 383.044 93.0226C383.044 95.6324 385.16 97.7477 387.769 97.7477Z" fill="#FEBB94"/>
<path d="M435.426 61.049C447.547 54.8999 459.213 47.889 470.332 40.0713" stroke="white" stroke-width="10.368" stroke-miterlimit="10" stroke-linecap="round"/>
<path d="M435.426 81.4608C435.426 81.4608 443.37 77.5876 454.269 70.9722" stroke="white" stroke-width="10.368" stroke-miterlimit="10" stroke-linecap="round"/>
<path d="M435.426 101.417C447.547 95.2674 459.213 88.257 470.332 80.4393" stroke="white" stroke-width="10.368" stroke-miterlimit="10" stroke-linecap="round"/>
<path d="M435.426 123.822C447.547 117.673 459.213 110.662 470.332 102.845" stroke="white" stroke-width="10.368" stroke-miterlimit="10" stroke-linecap="round"/>
<path d="M369.915 152.84C372.298 152.84 374.229 150.908 374.229 148.524C374.229 146.141 372.298 144.208 369.915 144.208C367.532 144.208 365.601 146.141 365.601 148.524C365.601 150.908 367.532 152.84 369.915 152.84Z" fill="white"/>
<path d="M394.931 145.857C397.31 145.857 399.245 143.925 399.245 141.542C399.245 139.158 397.31 137.226 394.931 137.226C392.547 137.226 390.617 139.158 390.617 141.542C390.617 143.925 392.547 145.857 394.931 145.857Z" fill="white"/>
<path d="M417.492 138.148C419.876 138.148 421.805 136.215 421.805 133.832C421.805 131.448 419.876 129.516 417.492 129.516C415.112 129.516 413.178 131.448 413.178 133.832C413.178 136.215 415.112 138.148 417.492 138.148Z" fill="white"/>
</g>
<defs>
<filter id="filter0_d_51_18" x="0" y="0" width="501" height="443" filterUnits="userSpaceOnUse" color-interpolation-filters="sRGB">
<feFlood flood-opacity="0" result="BackgroundImageFix"/>
<feColorMatrix in="SourceAlpha" type="matrix" values="0 0 0 0 0 0 0 0 0 0 0 0 0 0 0 0 0 0 127 0" result="hardAlpha"/>
<feOffset dx="5" dy="10"/>
<feGaussianBlur stdDeviation="5"/>
<feComposite in2="hardAlpha" operator="out"/>
<feColorMatrix type="matrix" values="0 0 0 0 0.894531 0 0 0 0 0.925645 0 0 0 0 0.954167 0 0 0 1 0"/>
<feBlend mode="normal" in2="BackgroundImageFix" result="effect1_dropShadow_51_18"/>
<feBlend mode="normal" in="SourceGraphic" in2="effect1_dropShadow_51_18" result="shape"/>
</filter>
<linearGradient id="paint0_linear_51_18" x1="209.053" y1="-373.812" x2="385.07" y2="717.178" gradientUnits="userSpaceOnUse">
<stop stop-color="white"/>
<stop offset="1" stop-color="#94A5FF"/>
</linearGradient>
<linearGradient id="paint1_linear_51_18" x1="295.822" y1="228.391" x2="307.857" y2="394.865" gradientUnits="userSpaceOnUse">
<stop stop-color="white"/>
<stop offset="1" stop-color="#94B9FF"/>
</linearGradient>
<linearGradient id="paint2_linear_51_18" x1="172.496" y1="314.034" x2="188.063" y2="485.6" gradientUnits="userSpaceOnUse">
<stop stop-color="white"/>
<stop offset="1" stop-color="#94B9FF"/>
</linearGradient>
<linearGradient id="paint3_linear_51_18" x1="404.149" y1="-186.339" x2="503.088" y2="329.538" gradientUnits="userSpaceOnUse">
<stop stop-color="#C1ABFE"/>
<stop offset="1" stop-color="#94B9FF"/>
</linearGradient>
</defs>
</svg>
