<svg width="72" height="72" viewBox="0 0 72 72" fill="none" xmlns="http://www.w3.org/2000/svg">
<circle cx="36" cy="36" r="36" fill="#EAFAF6"/>
<g clip-path="url(#clip0_132_82)">
<path d="M35.38 16.165C35.5688 16.0571 35.7825 16.0004 36 16.0004C36.2175 16.0004 36.4312 16.0571 36.62 16.165L45.995 21.5225C46.1863 21.6318 46.3454 21.7897 46.456 21.9802C46.5666 22.1708 46.6249 22.3872 46.625 22.6075V32.595L55.37 37.595C55.5606 37.7039 55.7191 37.861 55.8297 38.0506C55.9403 38.2401 55.9991 38.4555 56 38.675V49.39C55.9999 49.6103 55.9416 49.8267 55.831 50.0173C55.7203 50.2078 55.5613 50.3657 55.37 50.475L45.995 55.8325C45.8062 55.9404 45.5925 55.9971 45.375 55.9971C45.1575 55.9971 44.9438 55.9404 44.755 55.8325L36 50.8325L27.245 55.835C27.0562 55.9429 26.8425 55.9996 26.625 55.9996C26.4075 55.9996 26.1938 55.9429 26.005 55.835L16.63 50.4775C16.4387 50.3682 16.2796 50.2103 16.169 50.0198C16.0584 49.8292 16.0001 49.6128 16 49.3925V38.6775C16.0001 38.4572 16.0584 38.2408 16.169 38.0502C16.2796 37.8597 16.4387 37.7018 16.63 37.5925L25.375 32.595V22.6075C25.3751 22.3872 25.4334 22.1708 25.544 21.9802C25.6546 21.7897 25.8137 21.6318 26.005 21.5225L35.38 16.165ZM26.625 34.76L19.77 38.6775L26.625 42.595L33.48 38.6775L26.625 34.76ZM34.75 40.8325L27.875 44.76V52.595L34.75 48.6675V40.8325ZM37.25 48.6675L44.125 52.595V44.76L37.25 40.8325V48.6675ZM38.52 38.6775L45.375 42.595L52.23 38.6775L45.375 34.76L38.52 38.6775ZM44.125 32.595V24.76L37.25 28.69V36.525L44.125 32.595ZM34.75 36.525V28.69L27.875 24.76V32.595L34.75 36.525ZM29.145 22.6075L36 26.525L42.855 22.6075L36 18.69L29.145 22.6075ZM53.5 40.8325L46.625 44.76V52.595L53.5 48.6675V40.8325ZM25.375 52.595V44.76L18.5 40.8325V48.6675L25.375 52.595Z" fill="#31D0AA"/>
</g>
<defs>
<clipPath id="clip0_132_82">
<rect width="40" height="40" fill="white" transform="translate(16 16)"/>
</clipPath>
</defs>
</svg>
