<svg width="30" height="30" viewBox="0 0 30 30" fill="none" xmlns="http://www.w3.org/2000/svg">
<path d="M9.42375 28.125C20.745 28.125 26.9381 18.7443 26.9381 10.6237C26.9381 10.3612 26.9381 10.095 26.9269 9.83246C28.1326 8.95962 29.1732 7.87899 30 6.64121C28.8737 7.1378 27.6802 7.46509 26.4581 7.61246C27.7454 6.84303 28.7095 5.6324 29.1712 4.20558C27.9619 4.92206 26.6382 5.42503 25.2581 5.69246C24.3303 4.70438 23.1026 4.0498 21.7652 3.83013C20.4277 3.61045 19.0551 3.83793 17.86 4.47734C16.6649 5.11674 15.714 6.13239 15.1546 7.36694C14.5952 8.6015 14.4585 9.98608 14.7656 11.3062C12.3183 11.1835 9.92403 10.5477 7.73821 9.4401C5.55238 8.33249 3.62378 6.77779 2.0775 4.87683C1.29251 6.23261 1.05295 7.83633 1.40746 9.36233C1.76197 10.8883 2.68398 12.2222 3.98625 13.0931C3.01039 13.0599 2.05598 12.7979 1.2 12.3281V12.4125C1.20168 13.8327 1.6937 15.2089 2.59289 16.3083C3.49208 17.4076 4.74328 18.1628 6.135 18.4462C5.60674 18.5917 5.06106 18.6643 4.51313 18.6618C4.12684 18.663 3.74134 18.6272 3.36187 18.555C3.75522 19.7776 4.52114 20.8465 5.55234 21.6121C6.58354 22.3777 7.82838 22.8015 9.1125 22.8243C6.93104 24.5377 4.23638 25.467 1.4625 25.4625C0.973726 25.4645 0.485293 25.4363 0 25.3781C2.81534 27.173 6.08493 28.126 9.42375 28.125V28.125Z" fill="#E5E5E5"/>
</svg>
